<?xml version="1.0" encoding="UTF-8"?>
<svg xmlns="http://www.w3.org/2000/svg" xmlns:xlink="http://www.w3.org/1999/xlink" width="47px" height="50px" viewBox="0 0 47 49" version="1.1">
<defs>
<linearGradient id="linear0" gradientUnits="userSpaceOnUse" x1="28.272" y1="181.2671" x2="398.04739" y2="181.2671" gradientTransform="matrix(0.110849,0,0,0.109375,0,0)">
<stop offset="0" style="stop-color:rgb(89.019608%,15.294118%,14.901961%);stop-opacity:1;"/>
<stop offset="0.15926" style="stop-color:rgb(85.882353%,15.294118%,15.294118%);stop-opacity:1;"/>
<stop offset="0.40331" style="stop-color:rgb(77.647059%,14.901961%,15.686275%);stop-opacity:1;"/>
<stop offset="0.70157" style="stop-color:rgb(63.921569%,14.509804%,16.862745%);stop-opacity:1;"/>
<stop offset="1" style="stop-color:rgb(47.45098%,13.72549%,18.039216%);stop-opacity:1;"/>
</linearGradient>
<radialGradient id="radial0" gradientUnits="userSpaceOnUse" cx="213.16674" cy="223.4219" fx="213.16674" fy="223.4219" r="200.13958" gradientTransform="matrix(0.110849,0,0,0.109375,0,0)">
<stop offset="0" style="stop-color:rgb(6.27451%,60%,83.921569%);stop-opacity:1;"/>
<stop offset="0.14024" style="stop-color:rgb(6.666667%,57.254902%,80.784314%);stop-opacity:1;"/>
<stop offset="0.35523" style="stop-color:rgb(7.058824%,49.803922%,72.54902%);stop-opacity:1;"/>
<stop offset="0.61815" style="stop-color:rgb(8.235294%,37.647059%,58.823529%);stop-opacity:1;"/>
<stop offset="0.91636" style="stop-color:rgb(9.803922%,20.784314%,40%);stop-opacity:1;"/>
<stop offset="1" style="stop-color:rgb(10.196078%,15.686275%,34.117647%);stop-opacity:1;"/>
</radialGradient>
</defs>
<g id="surface1">
<path style=" stroke:none;fill-rule:nonzero;fill:rgb(100%,100%,100%);fill-opacity:1;" d="M 47.007812 2.847656 L 47.007812 0 L 0.25 0 L 0.25 2.847656 C 0.25 2.847656 0.246094 18.820312 0.246094 18.914062 C 0.238281 25.230469 2.179688 31.394531 5.820312 36.589844 L 0 42.332031 L 4.082031 46.359375 L 9.535156 40.980469 C 10.84375 42.265625 12.261719 43.433594 13.777344 44.476562 C 16.535156 46.375 19.582031 47.828125 22.804688 48.773438 L 23.628906 49.015625 L 24.453125 48.773438 C 37.84375 44.851562 47.023438 32.703125 47.011719 18.921875 C 47.011719 18.828125 47.007812 2.847656 47.007812 2.847656 Z M 47.007812 2.847656 "/>
<path style=" stroke:none;fill-rule:nonzero;fill:url(#linear0);" d="M 44.125 2.800781 L 3.136719 2.800781 C 3.136719 2.800781 3.132812 18.796875 3.132812 18.890625 C 3.125 25.441406 5.425781 31.792969 9.644531 36.851562 L 44.125 2.832031 Z M 44.125 2.800781 "/>
<path style=" stroke:none;fill-rule:nonzero;fill:rgb(100%,100%,100%);fill-opacity:1;" d="M 23.628906 46.03125 C 35.480469 42.550781 44.125 31.71875 44.125 18.890625 C 44.125 18.800781 44.125 3.605469 44.125 2.832031 L 9.644531 36.851562 C 13.273438 41.21875 18.144531 44.414062 23.628906 46.03125 Z M 23.628906 46.03125 "/>
<path style=" stroke:none;fill-rule:nonzero;fill:rgb(10.196078%,15.686275%,34.117647%);fill-opacity:1;" d="M 9.832031 32.222656 L 9.578125 32.46875 L 10.273438 33.15625 L 10.113281 33.316406 L 9.417969 32.628906 L 9.164062 32.878906 L 9.035156 32.75 L 9.699219 32.09375 Z M 10.914062 32.050781 L 10.554688 31.25 L 10.785156 31.023438 L 11.609375 31.839844 L 11.460938 31.988281 L 10.8125 31.347656 L 10.808594 31.351562 L 11.210938 32.234375 L 11.097656 32.347656 L 10.203125 31.953125 L 10.199219 31.957031 L 10.847656 32.59375 L 10.695312 32.742188 L 9.867188 31.925781 L 10.101562 31.695312 Z M 10.914062 32.050781 "/>
<path style=" stroke:none;fill-rule:nonzero;fill:rgb(100%,100%,100%);fill-opacity:1;" d="M 18.648438 18.871094 L 19.171875 20.457031 L 17.800781 19.476562 L 16.433594 20.457031 L 16.953125 18.871094 L 15.585938 17.890625 L 17.277344 17.890625 L 17.800781 16.300781 L 18.324219 17.890625 L 20.015625 17.890625 Z M 18.648438 18.871094 "/>
<path style=" stroke:none;fill-rule:nonzero;fill:rgb(100%,100%,100%);fill-opacity:1;" d="M 10.769531 18.871094 L 12.136719 17.890625 L 10.445312 17.890625 L 9.921875 16.300781 L 9.398438 17.890625 L 7.707031 17.890625 L 9.074219 18.871094 L 8.554688 20.457031 L 9.921875 19.476562 L 11.289062 20.457031 Z M 10.769531 18.871094 "/>
<path style=" stroke:none;fill-rule:nonzero;fill:rgb(100%,100%,100%);fill-opacity:1;" d="M 14.386719 23.058594 L 13.863281 21.472656 L 13.339844 23.058594 L 11.644531 23.058594 L 13.015625 24.042969 L 12.492188 25.628906 L 13.863281 24.648438 L 15.230469 25.628906 L 14.707031 24.042969 L 16.078125 23.058594 Z M 14.386719 23.058594 "/>
<path style=" stroke:none;fill-rule:nonzero;fill:rgb(100%,100%,100%);fill-opacity:1;" d="M 9.261719 12.652344 L 7.710938 9.164062 L 7.660156 9.164062 L 7.660156 13.820312 C 7.664062 13.851562 7.652344 13.882812 7.628906 13.90625 C 7.605469 13.929688 7.570312 13.941406 7.539062 13.941406 L 6.148438 13.941406 C 6.113281 13.941406 6.082031 13.929688 6.058594 13.90625 C 6.035156 13.882812 6.019531 13.851562 6.023438 13.820312 L 6.023438 5.796875 C 6.019531 5.761719 6.035156 5.730469 6.058594 5.707031 C 6.082031 5.683594 6.113281 5.671875 6.148438 5.675781 L 7.613281 5.675781 C 7.699219 5.664062 7.78125 5.714844 7.808594 5.796875 L 9.929688 10.511719 L 9.976562 10.511719 L 12.058594 5.796875 C 12.089844 5.714844 12.171875 5.664062 12.257812 5.675781 L 13.699219 5.675781 C 13.730469 5.671875 13.765625 5.683594 13.789062 5.707031 C 13.8125 5.730469 13.824219 5.761719 13.820312 5.796875 L 13.820312 13.820312 C 13.824219 13.851562 13.8125 13.882812 13.789062 13.90625 C 13.765625 13.929688 13.730469 13.941406 13.699219 13.941406 L 12.304688 13.941406 C 12.273438 13.941406 12.242188 13.929688 12.21875 13.90625 C 12.195312 13.882812 12.179688 13.851562 12.183594 13.820312 L 12.183594 9.164062 L 12.132812 9.164062 L 10.582031 12.652344 C 10.546875 12.75 10.453125 12.816406 10.347656 12.808594 L 9.496094 12.808594 C 9.390625 12.8125 9.296875 12.75 9.261719 12.652344 "/>
<path style=" stroke:none;fill-rule:nonzero;fill:rgb(100%,100%,100%);fill-opacity:1;" d="M 15.074219 13.941406 L 20.53125 13.941406 C 20.5625 13.941406 20.597656 13.929688 20.621094 13.90625 C 20.644531 13.882812 20.65625 13.851562 20.652344 13.820312 L 20.652344 12.46875 C 20.65625 12.4375 20.644531 12.40625 20.621094 12.382812 C 20.597656 12.359375 20.5625 12.347656 20.53125 12.347656 L 16.835938 12.347656 C 16.8125 12.351562 16.792969 12.34375 16.777344 12.328125 C 16.765625 12.316406 16.757812 12.292969 16.761719 12.273438 L 16.761719 5.796875 C 16.761719 5.761719 16.75 5.730469 16.726562 5.707031 C 16.703125 5.683594 16.671875 5.671875 16.636719 5.675781 L 15.074219 5.675781 C 15.039062 5.671875 15.007812 5.683594 14.984375 5.707031 C 14.960938 5.730469 14.945312 5.761719 14.949219 5.796875 L 14.949219 13.820312 C 14.949219 13.851562 14.960938 13.882812 14.984375 13.90625 C 15.007812 13.929688 15.039062 13.941406 15.074219 13.941406 "/>
<path style=" stroke:none;fill-rule:nonzero;fill:rgb(100%,100%,100%);fill-opacity:1;" d="M 25.199219 8.96875 L 24.753906 8.90625 C 23.792969 8.773438 23.449219 8.46875 23.449219 7.996094 C 23.449219 7.472656 23.832031 7.097656 24.570312 7.097656 C 25.261719 7.097656 25.875 7.316406 26.515625 7.730469 C 26.546875 7.746094 26.578125 7.753906 26.609375 7.746094 C 26.644531 7.738281 26.671875 7.71875 26.691406 7.691406 L 27.441406 6.585938 C 27.503906 6.5 27.492188 6.453125 27.417969 6.402344 C 26.714844 5.867188 25.679688 5.539062 24.570312 5.539062 C 22.757812 5.539062 21.601562 6.550781 21.601562 8.070312 C 21.601562 9.527344 22.550781 10.316406 24.25 10.546875 L 24.695312 10.609375 C 25.691406 10.742188 25.988281 11.046875 25.988281 11.535156 C 25.988281 12.117188 25.496094 12.519531 24.621094 12.519531 C 23.734375 12.519531 22.980469 12.105469 22.425781 11.667969 C 22.402344 11.640625 22.367188 11.628906 22.332031 11.632812 C 22.296875 11.632812 22.265625 11.652344 22.242188 11.679688 L 21.304688 12.738281 C 21.253906 12.796875 21.257812 12.890625 21.316406 12.945312 C 21.972656 13.5625 23.238281 14.074219 24.546875 14.074219 C 26.714844 14.074219 27.835938 12.96875 27.835938 11.472656 C 27.835938 9.976562 26.925781 9.199219 25.199219 8.96875 "/>
<path style=" stroke:none;fill-rule:nonzero;fill:url(#radial0);" d="M 45.085938 2.800781 L 45.085938 1.851562 L 2.171875 1.851562 L 2.171875 2.800781 C 2.171875 2.800781 2.171875 18.796875 2.171875 18.890625 C 2.160156 25.261719 4.269531 31.460938 8.167969 36.539062 C 8.230469 36.617188 8.292969 36.695312 8.355469 36.773438 L 2.722656 42.332031 L 4.082031 43.675781 L 9.585938 38.246094 C 11.152344 40 12.929688 41.566406 14.875 42.90625 C 17.464844 44.691406 20.328125 46.050781 23.355469 46.941406 L 23.628906 47.023438 L 23.902344 46.941406 C 26.929688 46.050781 29.792969 44.691406 32.382812 42.90625 C 34.941406 41.144531 37.207031 38.996094 39.089844 36.539062 C 42.988281 31.460938 45.097656 25.261719 45.085938 18.890625 C 45.085938 18.796875 45.085938 2.800781 45.085938 2.800781 Z M 9.703125 35.394531 C 6.054688 30.644531 4.085938 24.851562 4.097656 18.890625 C 4.097656 18.8125 4.097656 7.191406 4.097656 3.75 L 41.824219 3.75 L 9.726562 35.421875 C 9.71875 35.410156 9.710938 35.402344 9.703125 35.394531 Z M 41.679688 27.746094 C 40.726562 30.496094 39.332031 33.078125 37.554688 35.394531 C 35.792969 37.691406 33.675781 39.699219 31.28125 41.347656 C 28.941406 42.960938 26.359375 44.207031 23.628906 45.039062 C 20.898438 44.207031 18.320312 42.960938 15.976562 41.347656 C 14.125 40.070312 12.433594 38.578125 10.949219 36.898438 L 43.160156 5.113281 C 43.160156 9.550781 43.164062 18.820312 43.164062 18.890625 C 43.167969 21.90625 42.664062 24.894531 41.679688 27.746094 Z M 41.679688 27.746094 "/>
</g>
</svg>
