<?xml version="1.0" encoding="UTF-8"?>
<svg xmlns="http://www.w3.org/2000/svg" xmlns:xlink="http://www.w3.org/1999/xlink" width="px" height="50px" viewBox="0 0 124 50" version="1.1">
<g id="surface1">
<path style=" stroke:none;fill-rule:nonzero;fill:rgb(0.392157%,9.411765%,23.921569%);fill-opacity:1;" d="M 1.4375 24.800781 L 1.4375 48.160156 L 10.320312 48.160156 L 10.355469 47.730469 C 10.382812 47.378906 10.609375 46.761719 11.636719 44.238281 C 12.316406 42.550781 12.875 41.15625 12.875 41.144531 C 12.875 41.128906 12.699219 41.09375 12.480469 41.082031 C 11.746094 41.011719 11.046875 40.503906 10.746094 39.824219 C 10.574219 39.441406 10.515625 38.859375 10.609375 38.507812 C 10.652344 38.351562 11.410156 36.449219 12.289062 34.289062 C 13.171875 32.128906 13.953125 30.199219 14.035156 30 L 14.171875 29.652344 L 12.957031 30.199219 C 9.261719 31.875 9.316406 31.855469 8.84375 31.882812 C 7.308594 31.992188 6.171875 30.433594 6.71875 28.984375 C 6.820312 28.703125 6.980469 28.472656 7.21875 28.230469 C 7.546875 27.910156 7.746094 27.804688 10.800781 26.480469 L 14.035156 25.074219 L 8.417969 25.054688 L 2.808594 25.042969 L 2.808594 2.8125 L 121.164062 2.8125 L 121.164062 25.042969 L 27.519531 25.042969 L 27.882812 25.234375 C 28.535156 25.578125 28.964844 26.378906 28.882812 27.097656 C 28.847656 27.375 27.109375 31.804688 26.78125 32.449219 C 26.601562 32.792969 26.183594 33.171875 25.789062 33.355469 C 25.28125 33.589844 24.480469 33.574219 24.007812 33.328125 C 23.226562 32.925781 22.78125 32.21875 22.789062 31.386719 C 22.792969 30.949219 22.835938 30.796875 23.316406 29.636719 C 23.601562 28.9375 23.835938 28.335938 23.835938 28.300781 C 23.835938 28.230469 23.125 27.921875 22.972656 27.921875 C 22.910156 27.921875 14.726562 47.96875 14.726562 48.113281 C 14.726562 48.140625 15.265625 48.160156 15.925781 48.160156 C 16.582031 48.160156 17.125 48.148438 17.125 48.128906 C 17.125 48.113281 17.046875 47.867188 16.953125 47.585938 C 16.546875 46.382812 16.847656 45.148438 17.773438 44.210938 C 18.507812 43.46875 19.582031 43.113281 20.582031 43.277344 C 22.671875 43.621094 23.910156 45.734375 23.191406 47.714844 L 23.027344 48.160156 L 122.535156 48.160156 L 122.535156 1.441406 L 1.4375 1.441406 Z M 89.089844 27.773438 C 89.542969 28.003906 89.679688 28.230469 89.628906 28.648438 C 89.582031 29.097656 89.453125 29.453125 88.765625 31.113281 C 88.097656 32.730469 87.964844 33.09375 87.84375 33.679688 C 87.710938 34.277344 87.765625 34.496094 88.0625 34.625 C 88.644531 34.867188 89.652344 34.445312 92.816406 32.671875 C 93.292969 32.402344 93.875 32.121094 94.117188 32.046875 C 95.253906 31.6875 96.863281 31.566406 97.609375 31.785156 C 98.019531 31.910156 98.355469 32.164062 98.355469 32.355469 C 98.355469 32.582031 97.753906 33.035156 96.246094 33.945312 C 93.972656 35.324219 93.144531 35.992188 92.9375 36.613281 C 92.808594 37.027344 92.957031 37.472656 93.917969 39.398438 C 95.144531 41.871094 95.390625 42.667969 95.097656 43.230469 C 94.902344 43.605469 94.152344 43.832031 92.910156 43.886719 C 91.875 43.933594 91.464844 43.847656 90.917969 43.484375 C 90.425781 43.144531 90.027344 42.605469 89.417969 41.429688 C 88.574219 39.792969 88.046875 39.359375 87.144531 39.523438 C 86.136719 39.714844 85.171875 40.609375 84.527344 41.945312 C 84.238281 42.542969 83.601562 43.195312 83.042969 43.484375 C 82.355469 43.832031 81.917969 43.929688 81.171875 43.894531 C 80.601562 43.875 80.445312 43.839844 80.101562 43.667969 C 79.828125 43.53125 79.652344 43.386719 79.5625 43.234375 C 79.410156 42.96875 79.292969 43.316406 80.753906 39.515625 C 82.847656 34.050781 84.609375 29.589844 84.84375 29.144531 C 85.453125 27.984375 86.289062 27.574219 87.980469 27.601562 C 88.671875 27.613281 88.847656 27.640625 89.089844 27.773438 Z M 107.910156 27.757812 C 108.335938 27.964844 108.492188 28.257812 108.492188 28.84375 C 108.492188 29.109375 108.445312 29.570312 108.390625 29.855469 C 108.238281 30.667969 108.328125 30.796875 109.347656 31.222656 C 109.65625 31.347656 110 31.546875 110.128906 31.675781 C 110.34375 31.886719 110.355469 31.929688 110.328125 32.25 C 110.265625 32.835938 109.902344 33.121094 108.527344 33.652344 C 107 34.242188 106.5625 34.558594 106.210938 35.324219 C 105.929688 35.941406 105.199219 37.898438 104.898438 38.84375 C 104.5 40.074219 104.597656 40.304688 105.71875 40.847656 C 106.480469 41.210938 106.644531 41.398438 106.644531 41.871094 C 106.644531 42.808594 106.109375 43.421875 104.980469 43.75 C 104.710938 43.832031 104.164062 43.867188 102.792969 43.886719 C 101.109375 43.921875 100.929688 43.90625 100.398438 43.777344 C 99.398438 43.523438 98.855469 43.042969 98.691406 42.28125 C 98.527344 41.480469 98.792969 40.421875 99.710938 38.300781 C 99.972656 37.707031 100.28125 36.964844 100.402344 36.648438 C 100.816406 35.566406 101 34.433594 100.820312 34.097656 C 100.78125 34.023438 100.542969 33.835938 100.28125 33.683594 C 99.710938 33.347656 99.597656 33.226562 99.519531 32.898438 C 99.375 32.25 99.746094 31.847656 100.992188 31.320312 C 102.210938 30.796875 102.570312 30.476562 103.15625 29.355469 C 103.734375 28.246094 104.183594 27.894531 105.308594 27.6875 C 106.089844 27.539062 107.542969 27.578125 107.910156 27.757812 Z M 66.644531 31.175781 C 67.9375 31.378906 68.625 31.6875 69.207031 32.320312 C 69.910156 33.082031 69.957031 33.753906 69.429688 35.339844 C 69.082031 36.394531 68.335938 38.300781 67.546875 40.175781 C 67.246094 40.890625 66.9375 41.679688 66.855469 41.925781 C 66.546875 42.859375 66.144531 43.269531 65.292969 43.503906 C 64.636719 43.6875 63.957031 43.667969 62.628906 43.421875 C 61.125 43.140625 60.570312 43.167969 58.972656 43.566406 C 57.925781 43.832031 57.753906 43.851562 56.671875 43.886719 C 53.355469 43.988281 51.507812 43.03125 51.507812 41.199219 C 51.507812 40.105469 52.273438 39.078125 53.890625 38.007812 C 54.273438 37.746094 54.816406 37.445312 55.097656 37.328125 C 56.335938 36.8125 58.597656 36.304688 61.816406 35.820312 C 63.234375 35.605469 63.78125 35.457031 64.179688 35.160156 C 64.519531 34.90625 64.65625 34.660156 64.65625 34.28125 C 64.65625 33.878906 64.519531 33.65625 64.152344 33.460938 C 63.902344 33.320312 63.765625 33.308594 62.945312 33.308594 C 61.84375 33.308594 61.601562 33.371094 60.273438 33.996094 C 59.117188 34.535156 58.683594 34.6875 57.910156 34.789062 C 56.882812 34.925781 56.007812 34.777344 55.636719 34.40625 C 55.074219 33.84375 55.628906 33.046875 57.117188 32.285156 C 58.390625 31.632812 59.664062 31.269531 61.355469 31.078125 C 62.234375 30.984375 65.816406 31.042969 66.644531 31.175781 Z M 39.238281 31.394531 C 39.570312 31.449219 40.136719 31.628906 40.574219 31.804688 C 42.246094 32.492188 42.609375 32.492188 45.5 31.742188 C 47.179688 31.304688 48.027344 31.1875 49.144531 31.234375 C 50.171875 31.285156 50.628906 31.394531 51.425781 31.769531 C 52.261719 32.175781 52.535156 32.644531 52.535156 33.644531 C 52.535156 34.761719 51.835938 37.035156 50.261719 41.003906 C 49.636719 42.589844 49.398438 43.023438 48.992188 43.332031 C 48.4375 43.757812 48.019531 43.867188 47.019531 43.875 C 46.234375 43.875 46.089844 43.851562 45.789062 43.714844 C 45.0625 43.378906 44.765625 42.914062 44.765625 42.089844 C 44.765625 41.417969 44.855469 41.121094 45.5 39.757812 C 46.445312 37.71875 46.78125 36.699219 46.78125 35.820312 L 46.78125 35.304688 L 46.453125 34.988281 C 45.625 34.191406 44.238281 34.28125 43.191406 35.203125 C 42.761719 35.585938 42.28125 36.574219 41.925781 37.835938 C 41.773438 38.363281 41.5 39.34375 41.308594 40.011719 C 40.9375 41.316406 40.5 42.523438 40.253906 42.890625 C 40.042969 43.199219 39.484375 43.523438 38.816406 43.707031 C 38.335938 43.847656 38.089844 43.875 37.191406 43.875 C 35.972656 43.875 35.628906 43.796875 35.292969 43.460938 C 35.097656 43.261719 35.070312 43.195312 35.070312 42.878906 C 35.070312 42.214844 35.5 40.820312 36.398438 38.617188 C 37.027344 37.054688 37.210938 36.375 37.179688 35.738281 C 37.15625 35.347656 37.125 35.230469 36.945312 35.007812 C 36.636719 34.625 36.234375 34.441406 35.683594 34.441406 C 34.738281 34.441406 33.84375 34.796875 33.21875 35.414062 C 32.609375 36.019531 32.226562 36.785156 31.371094 39.140625 C 30.71875 40.917969 29.761719 42.722656 29.183594 43.242188 C 28.898438 43.503906 28.328125 43.742188 27.738281 43.851562 C 27.128906 43.960938 25.789062 43.886719 25.335938 43.707031 C 24.71875 43.476562 24.382812 43.015625 24.515625 42.578125 C 24.601562 42.253906 27.046875 35.785156 27.753906 34 C 28.472656 32.191406 28.617188 31.96875 29.234375 31.792969 C 29.855469 31.605469 30.199219 31.632812 30.589844 31.894531 C 30.902344 32.109375 30.953125 32.113281 31.371094 32.085938 C 31.617188 32.066406 32.199219 31.941406 32.671875 31.8125 C 34.289062 31.359375 35.691406 31.203125 37.570312 31.265625 C 38.171875 31.285156 38.925781 31.339844 39.238281 31.394531 Z M 77.125 31.53125 C 78.210938 31.765625 78.925781 31.769531 79.726562 31.558594 C 80.679688 31.3125 81.28125 31.386719 81.734375 31.8125 C 82.253906 32.320312 82.109375 33.363281 81.425781 34.050781 C 80.992188 34.480469 80.570312 34.660156 79.445312 34.886719 C 77.898438 35.203125 77.273438 35.441406 76.589844 36.003906 C 75.972656 36.5 75.535156 37.417969 74.042969 41.300781 C 73.71875 42.144531 73.382812 42.722656 72.953125 43.179688 C 72.292969 43.867188 72.28125 43.875 70.410156 43.894531 C 68.820312 43.914062 68.792969 43.914062 68.5625 43.757812 C 68.246094 43.542969 68.015625 43.179688 68.015625 42.90625 C 68.015625 42.445312 69.226562 39.070312 70.320312 36.472656 C 70.644531 35.714844 71.054688 34.644531 71.238281 34.097656 C 71.453125 33.472656 71.664062 32.972656 71.820312 32.738281 C 72.328125 32.003906 73.074219 31.496094 73.847656 31.359375 C 74.527344 31.234375 76.179688 31.324219 77.125 31.53125 Z M 77.125 31.53125 "/>
<path style=" stroke:none;fill-rule:nonzero;fill:rgb(0.392157%,9.411765%,23.921569%);fill-opacity:1;" d="M 61.371094 38.054688 C 60.78125 38.132812 59.4375 38.425781 58.9375 38.597656 C 56.902344 39.269531 56.234375 40.421875 57.492188 41.0625 C 57.835938 41.226562 58.007812 41.265625 58.527344 41.285156 C 59.382812 41.328125 60.070312 41.148438 61.15625 40.609375 C 62.542969 39.921875 63.261719 39.089844 63.007812 38.472656 C 62.964844 38.363281 62.835938 38.226562 62.726562 38.171875 C 62.515625 38.0625 61.78125 38 61.371094 38.054688 Z M 61.371094 38.054688 "/>
<path style=" stroke:none;fill-rule:nonzero;fill:rgb(0.392157%,9.411765%,23.921569%);fill-opacity:1;" d="M 87.152344 5.558594 C 85.375 5.730469 84.089844 6.324219 82.875 7.539062 C 82.554688 7.867188 82.097656 8.398438 81.871094 8.71875 C 81.289062 9.523438 81.035156 9.707031 79.738281 10.222656 C 78.816406 10.585938 78.273438 11.191406 78.390625 11.726562 C 78.4375 11.9375 78.683594 12.191406 79.226562 12.582031 C 79.425781 12.726562 79.65625 12.933594 79.738281 13.050781 C 80.054688 13.5 79.863281 14.234375 78.683594 17.015625 C 77.492188 19.828125 77.125 20.871094 77.125 21.390625 C 77.125 22.179688 77.855469 22.570312 79.308594 22.570312 C 80.84375 22.570312 81.84375 22.144531 82.425781 21.246094 C 82.554688 21.046875 82.800781 20.5 82.972656 20.027344 C 83.144531 19.550781 83.574219 18.46875 83.929688 17.609375 C 84.289062 16.761719 84.707031 15.695312 84.871094 15.25 C 85.246094 14.1875 85.570312 13.578125 85.917969 13.253906 C 86.210938 12.980469 86.363281 12.910156 87.398438 12.589844 C 88.773438 12.148438 89.382812 11.65625 89.382812 10.984375 C 89.382812 10.605469 89.199219 10.414062 88.492188 10.066406 C 87.957031 9.796875 87.910156 9.753906 87.890625 9.558594 C 87.863281 9.277344 88 9.1875 89.191406 8.707031 C 90.554688 8.164062 91.171875 7.636719 91.273438 6.949219 C 91.402344 6.085938 90.5 5.613281 88.5625 5.53125 C 88.128906 5.515625 87.492188 5.523438 87.152344 5.558594 Z M 87.152344 5.558594 "/>
<path style=" stroke:none;fill-rule:nonzero;fill:rgb(0.392157%,9.411765%,23.921569%);fill-opacity:1;" d="M 13 6.175781 C 12.179688 6.3125 11.515625 6.667969 11.15625 7.148438 C 11.042969 7.3125 10.828125 7.675781 10.683594 7.957031 C 10.191406 8.933594 9.78125 9.308594 8.683594 9.785156 C 7.808594 10.160156 7.375 10.449219 7.199219 10.777344 C 6.882812 11.332031 7.070312 11.8125 7.753906 12.226562 C 8.425781 12.625 8.519531 12.761719 8.464844 13.28125 C 8.375 14.167969 8.171875 14.757812 6.984375 17.5625 C 6.074219 19.710938 5.992188 20.992188 6.710938 21.742188 C 7.292969 22.34375 7.882812 22.503906 9.691406 22.550781 C 12.808594 22.632812 13.980469 22.199219 14.316406 20.84375 C 14.492188 20.128906 14.261719 19.773438 13.328125 19.328125 C 12.679688 19.011719 12.4375 18.796875 12.363281 18.460938 C 12.316406 18.230469 12.671875 17.074219 13.335938 15.332031 C 14.199219 13.089844 14.21875 13.070312 16.207031 12.28125 C 17.644531 11.710938 18.015625 11.394531 18.015625 10.765625 C 18.015625 10.296875 17.84375 10.125 16.9375 9.699219 C 15.957031 9.242188 15.964844 9.25 16.125 8.199219 C 16.265625 7.238281 16.226562 6.867188 15.945312 6.546875 C 15.644531 6.207031 15.226562 6.105469 14.183594 6.113281 C 13.710938 6.121094 13.179688 6.148438 13 6.175781 Z M 13 6.175781 "/>
<path style=" stroke:none;fill-rule:nonzero;fill:rgb(0.392157%,9.411765%,23.921569%);fill-opacity:1;" d="M 36.710938 9.542969 C 34.890625 9.679688 33.308594 10.09375 32 10.769531 C 30.792969 11.394531 30.238281 11.945312 30.238281 12.519531 C 30.238281 13.105469 30.734375 13.386719 31.855469 13.433594 C 33.046875 13.480469 33.671875 13.332031 35.261719 12.589844 C 36.484375 12.019531 36.882812 11.917969 37.847656 11.910156 C 38.515625 11.910156 38.644531 11.929688 38.945312 12.082031 C 39.542969 12.375 39.683594 12.953125 39.273438 13.441406 C 39.179688 13.554688 38.910156 13.742188 38.679688 13.851562 C 38.226562 14.070312 38.0625 14.105469 35.375 14.542969 C 32.28125 15.046875 30.328125 15.558594 29.28125 16.164062 C 26.835938 17.570312 25.816406 19.269531 26.535156 20.746094 C 27.027344 21.75 28.183594 22.316406 30.144531 22.507812 C 31.527344 22.640625 32.347656 22.550781 34.589844 22.023438 C 35.652344 21.777344 36.0625 21.777344 37.363281 22.03125 C 38.808594 22.3125 39.597656 22.332031 40.308594 22.113281 C 41.101562 21.863281 41.554688 21.34375 41.882812 20.308594 C 41.953125 20.101562 42.289062 19.25 42.636719 18.421875 C 43.292969 16.84375 44.074219 14.832031 44.457031 13.722656 C 44.652344 13.164062 44.679688 12.964844 44.683594 12.382812 C 44.691406 11.800781 44.671875 11.648438 44.535156 11.382812 C 44.246094 10.792969 43.589844 10.257812 42.800781 9.960938 C 41.765625 9.578125 38.898438 9.386719 36.710938 9.542969 Z M 37.5 16.765625 C 38.128906 17.035156 37.917969 17.832031 37.042969 18.511719 C 36.589844 18.859375 35.609375 19.355469 34.910156 19.585938 C 34.253906 19.804688 33.445312 19.875 32.9375 19.757812 C 31.601562 19.449219 31.429688 18.53125 32.574219 17.796875 C 33.761719 17.035156 36.679688 16.425781 37.5 16.765625 Z M 37.5 16.765625 "/>
<path style=" stroke:none;fill-rule:nonzero;fill:rgb(0.392157%,9.411765%,23.921569%);fill-opacity:1;" d="M 70.480469 9.507812 C 67.863281 9.707031 65.582031 10.367188 64.144531 11.339844 C 62.902344 12.183594 62.128906 13.425781 62.210938 14.449219 C 62.253906 14.984375 62.417969 15.320312 62.84375 15.746094 C 63.644531 16.546875 65.097656 17.035156 67.671875 17.355469 C 69.507812 17.582031 70.207031 17.863281 70.207031 18.367188 C 70.207031 19.121094 68.984375 19.65625 67.125 19.738281 C 66.070312 19.777344 65.65625 19.695312 64.453125 19.183594 C 63.980469 18.976562 63.484375 18.777344 63.355469 18.734375 C 62.902344 18.597656 62.238281 18.539062 61.816406 18.597656 C 60.78125 18.757812 59.726562 19.609375 59.726562 20.28125 C 59.726562 20.535156 60.015625 21 60.308594 21.226562 C 61.9375 22.476562 66.207031 22.921875 69.792969 22.222656 C 72.515625 21.691406 74.546875 20.574219 75.472656 19.105469 C 76.070312 18.167969 76.273438 17.015625 75.957031 16.363281 C 75.5 15.410156 74.328125 14.941406 71.070312 14.40625 C 69.554688 14.167969 69.070312 14.042969 68.625 13.816406 C 68.089844 13.550781 67.992188 13.152344 68.363281 12.726562 C 68.65625 12.390625 69.089844 12.273438 70.070312 12.273438 C 71.164062 12.273438 72.261719 12.4375 73.628906 12.808594 C 74.753906 13.109375 75.679688 12.964844 76.625 12.355469 C 77.125 12.035156 77.328125 11.726562 77.328125 11.300781 C 77.328125 11.046875 77.289062 10.9375 77.125 10.75 C 76.699219 10.261719 75.601562 9.851562 74.179688 9.640625 C 73.472656 9.535156 71.210938 9.453125 70.480469 9.507812 Z M 70.480469 9.507812 "/>
<path style=" stroke:none;fill-rule:nonzero;fill:rgb(0.392157%,9.411765%,23.921569%);fill-opacity:1;" d="M 97.179688 9.605469 C 93.925781 9.898438 91.152344 11.066406 89.28125 12.933594 C 88.273438 13.933594 87.34375 15.484375 86.984375 16.738281 C 86.800781 17.40625 86.734375 18.449219 86.847656 18.941406 C 87.253906 20.679688 88.953125 21.933594 91.546875 22.40625 C 92.546875 22.59375 94.699219 22.570312 95.992188 22.378906 C 97.117188 22.207031 98.410156 21.898438 99.082031 21.644531 C 100.210938 21.21875 101.875 20.199219 102.179688 19.746094 C 102.699219 18.949219 101.765625 18.117188 100.347656 18.113281 C 99.765625 18.113281 99.226562 18.261719 98.320312 18.675781 C 96.253906 19.613281 95.597656 19.828125 94.726562 19.839844 C 93.808594 19.855469 92.953125 19.546875 92.453125 19.023438 C 91.699219 18.242188 92.027344 17.328125 93.199219 16.933594 C 93.65625 16.78125 93.710938 16.773438 97.226562 16.761719 C 102.828125 16.738281 103.226562 16.710938 103.925781 16.238281 C 104.597656 15.785156 104.882812 15.175781 104.882812 14.203125 C 104.890625 12.644531 104.128906 11.257812 102.855469 10.503906 C 102.320312 10.1875 101.273438 9.839844 100.480469 9.707031 C 99.664062 9.578125 98.042969 9.53125 97.179688 9.605469 Z M 98.347656 12.289062 C 99.28125 12.445312 99.792969 12.84375 99.792969 13.398438 C 99.792969 13.726562 99.484375 14.085938 99.054688 14.242188 C 98.78125 14.34375 98.445312 14.367188 96.78125 14.394531 C 94.746094 14.421875 94.492188 14.394531 94.152344 14.125 C 93.761719 13.816406 94.035156 13.214844 94.71875 12.863281 C 95.382812 12.535156 96.65625 12.234375 97.492188 12.21875 C 97.71875 12.210938 98.101562 12.246094 98.347656 12.289062 Z M 98.347656 12.289062 "/>
<path style=" stroke:none;fill-rule:nonzero;fill:rgb(0.392157%,9.411765%,23.921569%);fill-opacity:1;" d="M 21.746094 9.789062 C 20.480469 9.894531 19.652344 10.359375 19.019531 11.328125 C 18.882812 11.53125 18.644531 12.109375 18.464844 12.628906 C 18.292969 13.144531 17.890625 14.1875 17.570312 14.949219 C 16.417969 17.6875 15.253906 20.960938 15.253906 21.453125 C 15.253906 21.84375 15.519531 22.234375 15.902344 22.425781 C 16.171875 22.550781 16.328125 22.570312 17.144531 22.570312 L 18.082031 22.570312 L 17.820312 22.226562 C 16.875 20.980469 17.109375 19.203125 18.335938 18.207031 C 18.863281 17.777344 19.355469 17.605469 20.101562 17.605469 C 20.816406 17.597656 21.117188 17.671875 21.65625 18.003906 L 22.046875 18.234375 L 22.472656 17.160156 C 23.070312 15.648438 23.292969 15.246094 23.792969 14.765625 C 24.484375 14.097656 25.007812 13.878906 26.808594 13.515625 C 27.492188 13.378906 27.929688 13.253906 28.128906 13.132812 C 28.898438 12.683594 29.625 11.628906 29.625 10.964844 C 29.625 10.558594 29.453125 10.3125 29.019531 10.09375 C 28.601562 9.886719 27.957031 9.878906 27.027344 10.078125 C 26.152344 10.261719 25.554688 10.257812 24.554688 10.050781 C 23.789062 9.894531 22.464844 9.726562 22.15625 9.753906 C 22.082031 9.761719 21.898438 9.777344 21.746094 9.789062 Z M 21.746094 9.789062 "/>
<path style=" stroke:none;fill-rule:nonzero;fill:rgb(0.392157%,9.411765%,23.921569%);fill-opacity:1;" d="M 110.070312 9.789062 C 108.792969 9.914062 107.980469 10.378906 107.363281 11.347656 C 107.234375 11.554688 107.015625 12.074219 106.875 12.5 C 106.738281 12.925781 106.320312 14.007812 105.945312 14.90625 C 104.679688 17.96875 103.617188 20.933594 103.609375 21.445312 C 103.609375 21.804688 103.820312 22.167969 104.164062 22.378906 C 104.402344 22.523438 104.5 22.535156 105.691406 22.558594 C 107.5625 22.59375 107.972656 22.488281 108.628906 21.816406 C 109.144531 21.296875 109.410156 20.753906 110.4375 18.152344 C 110.917969 16.945312 111.402344 15.78125 111.519531 15.566406 C 111.816406 15.011719 112.480469 14.394531 113.101562 14.089844 C 113.570312 13.871094 113.910156 13.777344 115.636719 13.386719 C 116.429688 13.199219 116.792969 13.015625 117.191406 12.574219 C 117.570312 12.15625 117.738281 11.730469 117.738281 11.191406 C 117.738281 10.6875 117.574219 10.378906 117.179688 10.132812 C 116.71875 9.84375 116.289062 9.824219 115.390625 10.042969 C 114.464844 10.261719 114.007812 10.269531 112.957031 10.050781 C 112.117188 9.878906 110.910156 9.734375 110.519531 9.753906 C 110.402344 9.753906 110.199219 9.777344 110.070312 9.789062 Z M 110.070312 9.789062 "/>
<path style=" stroke:none;fill-rule:nonzero;fill:rgb(0.392157%,9.411765%,23.921569%);fill-opacity:1;" d="M 55.820312 9.914062 C 52.984375 10.429688 52.445312 10.460938 50.929688 10.214844 C 50.210938 10.097656 49.847656 10.078125 49.074219 10.105469 C 47.882812 10.148438 47.570312 10.242188 47.089844 10.730469 C 46.5625 11.257812 46.355469 11.703125 45.171875 14.785156 C 44.890625 15.5 44.34375 16.890625 43.9375 17.871094 C 43.015625 20.148438 42.738281 20.945312 42.738281 21.382812 C 42.738281 21.835938 42.945312 22.140625 43.390625 22.367188 C 43.707031 22.523438 43.808594 22.535156 44.65625 22.535156 C 45.417969 22.535156 45.664062 22.507812 46.0625 22.386719 C 46.644531 22.199219 47.210938 21.808594 47.519531 21.382812 C 47.875 20.882812 48.816406 18.703125 49.484375 16.808594 C 49.898438 15.648438 50.347656 14.824219 50.910156 14.222656 C 51.792969 13.273438 52.652344 12.871094 53.765625 12.871094 C 54.5 12.871094 54.871094 12.980469 55.207031 13.28125 C 55.925781 13.933594 55.789062 14.632812 54.109375 18.902344 C 53.179688 21.261719 53.097656 21.605469 53.355469 22.007812 C 53.5625 22.34375 53.980469 22.503906 54.773438 22.550781 C 55.589844 22.597656 56.765625 22.476562 57.152344 22.304688 C 57.789062 22.023438 58.164062 21.417969 58.863281 19.574219 C 59.101562 18.941406 59.601562 17.695312 59.980469 16.808594 C 61.226562 13.886719 61.628906 12.628906 61.542969 12.011719 C 61.398438 10.992188 60.710938 10.332031 59.417969 9.976562 C 58.855469 9.816406 56.546875 9.777344 55.820312 9.914062 Z M 55.820312 9.914062 "/>
<path style="fill-rule:nonzero;fill:rgb(100%,0%,0%);fill-opacity:1;stroke-width:2;stroke-linecap:butt;stroke-linejoin:miter;stroke:rgb(100%,100%,100%);stroke-opacity:1;stroke-miterlimit:4;" d="M 2861.257812 4604.8275 C 2792.25 4584.899375 2748.90625 4559.2775 2704.992188 4508.03375 C 2570.96875 4349.7475 2625.71875 4103.7775 2815.0625 4017.801875 C 2885.210938 3985.916875 2995.28125 3987.055625 3068.28125 4018.940625 C 3133.867188 4049.1175 3212 4132.24625 3234.242188 4196.01625 C 3254.203125 4256.939375 3254.203125 4353.16375 3234.242188 4414.086875 C 3212 4476.718125 3133.867188 4562.124375 3071.132812 4587.74625 C 3003.835938 4616.784375 2926.84375 4623.0475 2861.257812 4604.8275 Z M 2861.257812 4604.8275 " transform="matrix(0.00684932,0,0,-0.00686059,0,50.013721)"/>
<path style="fill-rule:nonzero;fill:rgb(100%,0%,0%);fill-opacity:1;stroke-width:2;stroke-linecap:butt;stroke-linejoin:miter;stroke:rgb(100%,100%,100%);stroke-opacity:1;stroke-miterlimit:4;" d="M 2920 3870.903125 C 2866.960938 3853.2525 1239.859375 3146.08875 1179.976562 3114.773125 C 1113.25 3080.04125 1077.890625 2994.065625 1093.859375 2905.243125 C 1101.84375 2861.970625 1153.171875 2802.18625 1197.085938 2783.96625 C 1274.078125 2750.9425 1287.765625 2756.066875 1806.179688 2990.08 C 2074.226562 3110.7875 2294.9375 3208.150625 2297.789062 3205.873125 C 2300.070312 3203.02625 2256.15625 3088.0125 2200.265625 2949.085 C 2143.804688 2810.726875 2102.171875 2694.005 2106.734375 2690.019375 C 2117 2680.909375 2861.828125 2378.001875 2865.25 2381.9875 C 2865.820312 2384.265 2958.210938 2609.7375 3068.851562 2884.745625 C 3181.203125 3159.75375 3274.164062 3386.934375 3275.875 3389.211875 C 3279.867188 3393.766875 3631.179688 3251.9925 3642.015625 3241.174375 C 3647.148438 3237.18875 3604.945312 3122.744375 3550.195312 2987.8025 C 3494.875 2851.721875 3449.820312 2731.014375 3449.820312 2716.78 C 3449.820312 2650.163125 3494.875 2578.99125 3554.757812 2549.953125 C 3630.039062 2514.0825 3720.71875 2531.16375 3776.039062 2592.086875 C 3802.273438 2619.98625 4080.015625 3299.250625 4086.859375 3351.06375 C 4094.273438 3400.03 4061.195312 3474.04875 4022.984375 3492.838125 C 4008.15625 3500.809375 3789.15625 3591.909375 3537.078125 3693.8275 C 3035.773438 3897.094375 3014.101562 3902.788125 2920 3870.903125 Z M 2920 3870.903125 " transform="matrix(0.00684932,0,0,-0.00686059,0,50.013721)"/>
<path style="fill-rule:nonzero;fill:rgb(100%,0%,0%);fill-opacity:1;stroke-width:2;stroke-linecap:butt;stroke-linejoin:miter;stroke:rgb(100%,100%,100%);stroke-opacity:1;stroke-miterlimit:4;" d="M 2032.023438 2539.135 C 2021.1875 2515.22125 1936.210938 2305.121875 1842.109375 2073.955625 C 1664.742188 1641.230625 1656.1875 1608.77625 1681.28125 1542.72875 C 1694.96875 1505.15 1737.742188 1460.169375 1777.09375 1444.226875 C 1847.8125 1412.91125 1957.882812 1440.24125 1998.945312 1497.748125 C 2016.054688 1522.800625 2393.03125 2441.2025 2387.898438 2445.188125 C 2386.1875 2445.7575 2314.898438 2474.795625 2229.921875 2508.958125 C 2144.945312 2544.259375 2069.09375 2573.866875 2062.820312 2577.283125 C 2054.835938 2580.13 2042.859375 2564.756875 2032.023438 2539.135 Z M 2032.023438 2539.135 " transform="matrix(0.00684932,0,0,-0.00686059,0,50.013721)"/>
<path style="fill-rule:nonzero;fill:rgb(100%,0%,0%);fill-opacity:1;stroke-width:2;stroke-linecap:butt;stroke-linejoin:miter;stroke:rgb(100%,100%,100%);stroke-opacity:1;stroke-miterlimit:4;" d="M 2459.757812 2374.01625 C 2454.054688 2359.2125 2269.84375 1904.281875 2050.273438 1362.80625 C 1615.125 291.811875 1625.960938 325.974375 1669.875 239.99875 C 1698.960938 183.06125 1741.734375 155.73125 1815.875 151.745625 C 1883.742188 147.190625 1917.960938 159.716875 1961.875 206.975 C 1981.265625 226.903125 2109.015625 529.24125 2395.882812 1235.26625 C 2620.015625 1785.2825 2803.085938 2243.06 2804.226562 2252.739375 C 2804.796875 2266.97375 2771.148438 2285.19375 2646.820312 2335.868125 C 2561.273438 2371.169375 2484.851562 2400.2075 2479.71875 2400.2075 C 2474.015625 2400.2075 2464.890625 2388.250625 2459.757812 2374.01625 Z M 2459.757812 2374.01625 " transform="matrix(0.00684932,0,0,-0.00686059,0,50.013721)"/>
<path style="fill-rule:nonzero;fill:rgb(100%,0%,0%);fill-opacity:1;stroke-width:2;stroke-linecap:butt;stroke-linejoin:miter;stroke:rgb(100%,100%,100%);stroke-opacity:1;stroke-miterlimit:4;" d="M 2839.015625 846.9525 C 2739.210938 817.914375 2665.070312 756.99125 2612.03125 656.78125 C 2588.078125 610.0925 2585.226562 594.719375 2585.226562 504.758125 C 2585.226562 422.768125 2589.21875 396.0075 2606.898438 357.859375 C 2637.125 291.811875 2711.835938 214.94625 2779.132812 183.06125 C 2828.179688 158.00875 2845.859375 155.161875 2930.265625 155.161875 C 3018.09375 155.161875 3031.210938 158.00875 3092.234375 188.185625 C 3364.84375 321.98875 3347.734375 714.8575 3064.859375 834.995625 C 3011.820312 857.20125 2897.1875 862.895 2839.015625 846.9525 Z M 2839.015625 846.9525 " transform="matrix(0.00684932,0,0,-0.00686059,0,50.013721)"/>
</g>
</svg>
