<?xml version="1.0" encoding="UTF-8"?>
<svg xmlns="http://www.w3.org/2000/svg" xmlns:xlink="http://www.w3.org/1999/xlink" width="12px" height="12px" viewBox="0 0 12 12" version="1.1">
<g id="surface1">
<path style=" stroke:none;fill-rule:nonzero;fill:rgb(0%,0%,0%);fill-opacity:1;" d="M 10.5 6.375 L 6.75 6.375 C 6.335938 6.375 6 6.710938 6 7.125 L 6 9.375 C 6 9.789062 6.335938 10.125 6.75 10.125 L 8.25 10.125 L 8.25 9.375 L 6.75 9.375 L 6.75 7.125 L 10.5 7.125 L 10.5 9.375 L 9.550781 9.375 L 8.578125 10.832031 L 9.199219 11.25 L 9.949219 10.125 L 10.5 10.125 C 10.914062 10.125 11.25 9.789062 11.25 9.375 L 11.25 7.125 C 11.25 6.710938 10.914062 6.375 10.5 6.375 M 3.25 9.039062 L 3.574219 8.71875 C 3.660156 8.628906 3.792969 8.601562 3.910156 8.648438 L 4.304688 8.804688 C 4.421875 8.855469 4.5 8.96875 4.5 9.097656 L 4.5 9.8125 C 4.5 9.898438 4.464844 9.980469 4.402344 10.039062 C 4.339844 10.097656 4.257812 10.128906 4.171875 10.125 C 1.414062 9.953125 0.855469 7.617188 0.753906 6.722656 C 0.742188 6.632812 0.769531 6.546875 0.828125 6.480469 C 0.890625 6.414062 0.972656 6.375 1.0625 6.375 L 1.765625 6.375 C 1.894531 6.375 2.007812 6.453125 2.054688 6.570312 L 2.214844 6.964844 C 2.257812 7.082031 2.234375 7.214844 2.144531 7.300781 L 1.820312 7.625 C 1.9375 8.359375 2.515625 8.933594 3.25 9.039062 M 7.875 3.375 L 10.5 3.375 L 10.5 4.125 L 7.875 4.125 Z M 7.875 1.875 L 11.25 1.875 L 11.25 2.625 L 7.875 2.625 Z M 6.375 2.25 L 5.25 3.074219 L 5.25 2.25 C 5.25 1.835938 4.914062 1.5 4.5 1.5 L 1.5 1.5 C 1.085938 1.5 0.75 1.835938 0.75 2.25 L 0.75 4.5 C 0.75 4.914062 1.085938 5.25 1.5 5.25 L 4.5 5.25 C 4.914062 5.25 5.25 4.914062 5.25 4.5 L 5.25 3.675781 L 6.375 4.5 Z M 1.5 4.5 L 1.5 2.25 L 4.5 2.25 L 4.5 4.5 Z M 1.5 4.5 "/>
</g>
</svg>
