<?xml version="1.0" encoding="UTF-8"?>
<svg xmlns="http://www.w3.org/2000/svg" xmlns:xlink="http://www.w3.org/1999/xlink" width="12px" height="12px" viewBox="0 0 12 12" version="1.1">
<g id="surface1">
<path style=" stroke:none;fill-rule:nonzero;fill:rgb(0%,0%,0%);fill-opacity:1;" d="M 8.292969 0.875 C 8 0.582031 7.523438 0.582031 7.234375 0.875 L 7.078125 1.027344 C 6.789062 1.320312 6.789062 1.796875 7.078125 2.089844 L 7.089844 2.101562 C 6.859375 2.25 6.503906 2.480469 6.117188 2.742188 C 5.761719 2.304688 5.324219 1.898438 5.121094 1.71875 C 5.171875 1.476562 5.105469 1.214844 4.921875 1.027344 L 4.765625 0.875 C 4.476562 0.582031 4 0.582031 3.707031 0.875 L 0.21875 4.371094 C -0.0742188 4.664062 -0.0742188 5.140625 0.21875 5.433594 L 0.375 5.585938 C 0.597656 5.8125 0.9375 5.863281 1.210938 5.738281 C 1.355469 5.941406 1.722656 6.449219 2.191406 7.039062 C 1.933594 7.300781 1.523438 7.800781 1.503906 8.304688 C 1.496094 8.554688 1.585938 8.777344 1.757812 8.953125 C 2.296875 9.496094 3.902344 11.101562 3.902344 11.101562 L 3.953125 11.144531 C 3.972656 11.160156 4.246094 11.347656 4.6875 11.347656 C 5.050781 11.347656 5.53125 11.214844 6.078125 10.761719 C 6.191406 10.84375 6.265625 10.894531 6.28125 10.90625 C 6.335938 10.9375 6.714844 11.164062 7.136719 11.164062 C 7.269531 11.164062 7.410156 11.140625 7.542969 11.078125 C 7.722656 11 7.945312 10.828125 8.070312 10.460938 C 8.382812 10.347656 8.769531 10.097656 8.925781 9.632812 C 9.289062 9.546875 9.671875 9.296875 9.804688 8.808594 C 10.148438 8.761719 10.546875 8.570312 10.691406 8.0625 C 10.796875 7.679688 10.691406 7.351562 10.523438 7.097656 C 10.773438 6.824219 11.097656 6.367188 11.164062 5.800781 C 11.332031 5.785156 11.496094 5.714844 11.625 5.585938 L 11.78125 5.433594 C 12.074219 5.140625 12.074219 4.664062 11.78125 4.371094 Z M 10.40625 5.421875 C 10.488281 5.898438 10.210938 6.320312 9.992188 6.5625 L 7.976562 4.667969 L 7.726562 4.847656 C 7.21875 5.210938 6.5625 4.890625 6.558594 4.890625 L 6.339844 4.78125 L 6.152344 4.929688 C 6.144531 4.9375 5.539062 5.414062 4.730469 5.484375 C 4.664062 5.492188 4.609375 5.492188 4.558594 5.492188 C 4.355469 5.492188 4.292969 5.453125 4.292969 5.457031 C 4.273438 5.390625 4.351562 5.132812 4.621094 4.808594 C 4.929688 4.4375 6.582031 3.316406 7.632812 2.644531 Z M 2.914062 7.917969 L 2.371094 8.507812 C 2.34375 8.480469 2.316406 8.449219 2.292969 8.425781 C 2.261719 8.394531 2.253906 8.371094 2.253906 8.328125 C 2.261719 8.140625 2.464844 7.851562 2.667969 7.625 C 2.75 7.722656 2.832031 7.820312 2.914062 7.917969 Z M 4.019531 10.15625 C 3.941406 10.078125 3.851562 9.992188 3.761719 9.898438 L 4.292969 9.320312 C 4.386719 9.402344 4.476562 9.484375 4.570312 9.5625 Z M 3.230469 9.367188 C 3.117188 9.257812 3.007812 9.144531 2.902344 9.039062 L 3.421875 8.476562 C 3.492188 8.554688 3.566406 8.628906 3.640625 8.703125 C 3.675781 8.738281 3.710938 8.773438 3.746094 8.808594 Z M 4.636719 10.59375 L 5.144531 10.042969 C 5.253906 10.132812 5.359375 10.214844 5.457031 10.292969 C 5.097656 10.554688 4.820312 10.605469 4.636719 10.59375 Z M 9.96875 7.859375 C 9.917969 8.035156 9.753906 8.070312 9.640625 8.074219 L 7.550781 6.082031 L 7.03125 6.625 L 9.085938 8.582031 C 9.039062 8.792969 8.890625 8.875 8.753906 8.90625 L 6.691406 6.941406 L 6.175781 7.484375 L 8.203125 9.417969 C 8.128906 9.59375 7.984375 9.6875 7.867188 9.734375 L 5.832031 7.800781 L 5.316406 8.34375 L 7.339844 10.269531 C 7.316406 10.324219 7.28125 10.371094 7.238281 10.394531 C 7.101562 10.457031 6.820312 10.351562 6.691406 10.277344 C 6.679688 10.269531 5.300781 9.304688 4.167969 8.171875 C 3.113281 7.113281 1.9375 5.460938 1.777344 5.238281 L 4.679688 2.328125 C 4.875 2.507812 5.214844 2.832031 5.496094 3.167969 C 4.863281 3.613281 4.261719 4.066406 4.042969 4.328125 C 3.824219 4.59375 3.347656 5.265625 3.628906 5.800781 C 3.804688 6.140625 4.195312 6.285156 4.796875 6.230469 C 5.546875 6.164062 6.148438 5.835938 6.4375 5.644531 C 6.742188 5.75 7.320312 5.878906 7.890625 5.613281 L 9.882812 7.488281 C 9.953125 7.585938 10.007812 7.714844 9.96875 7.859375 Z M 9.96875 7.859375 "/>
</g>
</svg>
