<?xml version="1.0" encoding="UTF-8"?>
<svg xmlns="http://www.w3.org/2000/svg" xmlns:xlink="http://www.w3.org/1999/xlink" width="px" height="50px" viewBox="0 0 50 50" version="1.1">
<g id="surface1">
<path style=" stroke:none;fill-rule:nonzero;fill:rgb(96.862745%,17.647059%,14.117647%);fill-opacity:1;" d="M 23.363281 2.933594 C 17.621094 3.316406 12.210938 5.996094 8.382812 10.351562 C 5.71875 13.390625 3.914062 17.164062 3.25 21.089844 C 3.015625 22.460938 2.960938 23.203125 2.960938 24.78125 C 2.960938 26.820312 3.128906 28.234375 3.59375 30.078125 C 4.925781 35.410156 8.222656 40.042969 12.84375 43.089844 C 17.890625 46.414062 24.179688 47.496094 30.054688 46.046875 C 37.429688 44.222656 43.398438 38.648438 45.699219 31.421875 C 46.125 30.09375 46.429688 28.636719 46.617188 27.074219 C 46.734375 26.039062 46.734375 23.519531 46.617188 22.484375 C 46.097656 18.125 44.554688 14.410156 41.867188 11.035156 C 41.246094 10.265625 39.5625 8.550781 38.804688 7.929688 C 36.644531 6.15625 34.1875 4.804688 31.59375 3.953125 C 29.015625 3.109375 26.113281 2.75 23.363281 2.933594 Z M 26.976562 5.394531 C 32.128906 5.980469 36.804688 8.574219 40.082031 12.65625 C 41.484375 14.40625 42.6875 16.636719 43.390625 18.785156 C 44.652344 22.675781 44.644531 27.015625 43.355469 30.878906 C 42.699219 32.828125 41.664062 34.808594 40.4375 36.4375 C 37.460938 40.398438 33.144531 43.085938 28.320312 43.964844 C 27.027344 44.199219 26.34375 44.257812 24.828125 44.257812 C 23.3125 44.257812 22.625 44.199219 21.335938 43.964844 C 11.402344 42.140625 4.421875 32.90625 5.421875 22.894531 C 6.285156 14.253906 12.816406 7.15625 21.351562 5.59375 C 21.945312 5.488281 23.066406 5.347656 23.730469 5.304688 C 24.292969 5.265625 26.324219 5.320312 26.976562 5.394531 Z M 26.976562 5.394531 "/>
<path style=" stroke:none;fill-rule:nonzero;fill:rgb(96.862745%,17.647059%,14.117647%);fill-opacity:1;" d="M 14.210938 18.53125 L 14.210938 22.609375 L 16.210938 22.609375 L 16.21875 21.296875 L 16.234375 19.996094 L 17.757812 19.980469 L 19.277344 19.96875 L 20.042969 21.289062 L 20.8125 22.609375 L 22.007812 22.609375 C 22.992188 22.609375 23.199219 22.597656 23.179688 22.539062 C 23.164062 22.503906 22.765625 21.875 22.289062 21.148438 C 21.816406 20.414062 21.421875 19.789062 21.40625 19.761719 C 21.398438 19.726562 21.507812 19.640625 21.65625 19.5625 C 22.191406 19.28125 22.609375 18.734375 22.777344 18.082031 C 22.875 17.714844 22.875 16.804688 22.777344 16.441406 C 22.546875 15.550781 21.832031 14.886719 20.824219 14.628906 C 20.25 14.484375 19.632812 14.453125 16.933594 14.453125 L 14.210938 14.453125 Z M 19.847656 16.210938 C 20.5625 16.3125 20.851562 16.605469 20.851562 17.226562 C 20.851562 17.773438 20.632812 18.03125 20.042969 18.1875 C 19.808594 18.246094 19.417969 18.261719 17.984375 18.261719 L 16.210938 18.261719 L 16.210938 16.164062 L 17.859375 16.164062 C 18.765625 16.164062 19.664062 16.1875 19.847656 16.210938 Z M 19.847656 16.210938 "/>
<path style=" stroke:none;fill-rule:nonzero;fill:rgb(96.862745%,17.647059%,14.117647%);fill-opacity:1;" d="M 27.6875 18.53125 L 27.6875 22.609375 L 29.835938 22.609375 L 29.835938 19.382812 L 35.5 19.382812 L 35.5 17.773438 L 29.835938 17.773438 L 29.835938 16.164062 L 36.085938 16.164062 L 36.085938 14.453125 L 27.6875 14.453125 Z M 27.6875 18.53125 "/>
<path style=" stroke:none;fill-rule:nonzero;fill:rgb(96.862745%,17.647059%,14.117647%);fill-opacity:1;" d="M 14.210938 31.03125 L 14.210938 35.109375 L 23 35.109375 L 23 33.398438 L 16.308594 33.398438 L 16.308594 31.789062 L 19.203125 31.777344 L 22.09375 31.761719 L 22.109375 30.941406 L 22.117188 30.125 L 16.304688 30.125 L 16.320312 29.40625 L 16.332031 28.6875 L 19.644531 28.671875 L 22.949219 28.664062 L 22.949219 26.953125 L 14.210938 26.953125 Z M 14.210938 31.03125 "/>
<path style=" stroke:none;fill-rule:nonzero;fill:rgb(96.862745%,17.647059%,14.117647%);fill-opacity:1;" d="M 27.6875 31.03125 L 27.6875 35.109375 L 29.835938 35.109375 L 29.835938 31.882812 L 35.5 31.882812 L 35.5 30.273438 L 29.835938 30.273438 L 29.835938 28.664062 L 36.085938 28.664062 L 36.085938 26.953125 L 27.6875 26.953125 Z M 27.6875 31.03125 "/>
</g>
</svg>
