<?xml version="1.0" standalone="no"?>
<!DOCTYPE svg PUBLIC "-//W3C//DTD SVG 20010904//EN"
 "http://www.w3.org/TR/2001/REC-SVG-20010904/DTD/svg10.dtd">
<svg version="1.0" xmlns="http://www.w3.org/2000/svg"
 width="1000.000000pt" height="1000.000000pt" viewBox="0 0 1000.000000 1000.000000"
 preserveAspectRatio="xMidYMid meet">

<g transform="translate(0.000000,1000.000000) scale(0.100000,-0.100000)"
fill="#000000" stroke="none">
<path d="M540 9584 c-92 -20 -201 -76 -246 -127 -20 -23 -48 -67 -63 -97 l-26
-55 -3 -1169 c-2 -935 0 -1171 10 -1178 7 -4 122 -8 255 -8 206 0 244 2 257
16 14 14 16 123 16 1055 0 876 2 1039 14 1039 19 0 31 -18 45 -70 6 -25 94
-439 195 -921 105 -500 193 -898 206 -925 61 -140 234 -213 441 -187 159 20
260 86 314 204 16 37 57 205 115 480 50 233 125 584 166 779 42 195 87 408
100 473 13 64 28 126 33 136 13 24 36 32 50 18 8 -8 11 -293 11 -1042 0 -789
3 -1034 12 -1043 17 -17 499 -17 516 0 9 9 12 277 12 1146 0 1256 2 1224 -63
1315 -41 57 -70 80 -150 118 -103 48 -205 62 -397 56 -220 -7 -289 -27 -361
-104 -101 -106 -118 -178 -269 -1158 -101 -657 -112 -718 -131 -767 -16 -39
-25 -35 -43 20 -21 67 -24 81 -146 832 -111 678 -151 882 -194 975 -50 109
-129 168 -253 190 -100 18 -338 18 -423 -1z"/>
<path d="M3638 9584 c-176 -42 -301 -174 -355 -374 -17 -60 -18 -137 -18 -995
0 -875 1 -933 18 -982 40 -115 162 -236 271 -268 42 -13 164 -15 782 -15 653
0 734 2 748 16 24 23 24 435 0 458 -14 14 -86 16 -644 16 -563 0 -628 2 -634
16 -8 20 -8 548 0 568 6 14 67 16 594 16 486 0 590 2 599 14 8 9 11 83 9 247
l-3 234 -589 3 c-415 1 -593 5 -603 13 -18 16 -19 539 -1 557 9 9 164 12 638
12 474 0 629 3 638 12 9 9 12 73 12 228 0 155 -3 219 -12 228 -19 19 -1372 15
-1450 -4z"/>
<path d="M5737 9585 c-179 -36 -278 -126 -324 -296 -15 -58 -17 -162 -20
-1185 -3 -1021 -2 -1123 12 -1138 14 -14 49 -16 259 -16 175 0 245 3 254 12 9
9 12 259 12 1065 0 950 2 1054 16 1060 8 3 21 -1 28 -8 7 -8 127 -432 265
-944 139 -511 262 -949 273 -973 29 -56 114 -141 180 -178 l53 -29 207 -3
c232 -4 286 5 364 59 92 63 175 197 194 315 16 95 13 2236 -2 2257 -12 16 -37
17 -268 15 l-255 -3 -5 -1060 c-3 -583 -6 -1061 -8 -1062 -11 -12 -44 1 -51
20 -5 12 -120 434 -256 937 -136 503 -257 934 -267 957 -47 101 -142 172 -265
198 -85 18 -304 18 -396 0z"/>
<path d="M7817 9593 c-4 -3 -7 -461 -7 -1017 0 -991 0 -1013 21 -1086 56 -203
216 -392 400 -474 124 -54 185 -61 559 -61 329 0 349 1 435 24 123 31 277 106
344 166 107 98 186 235 218 380 17 74 18 160 18 1075 l0 995 -262 3 c-145 1
-264 1 -265 0 -2 -2 -5 -433 -8 -958 l-5 -955 -29 -60 c-35 -71 -96 -140 -149
-166 -35 -19 -56 -20 -296 -17 l-258 3 -43 30 c-51 35 -106 114 -126 180 -12
40 -14 198 -14 977 0 622 -3 936 -10 949 -10 18 -24 19 -264 19 -139 0 -256
-3 -259 -7z"/>
<path d="M251 6506 c-51 -28 -50 -15 -51 -698 0 -473 3 -644 12 -663 7 -15 24
-33 39 -41 42 -21 9466 -21 9508 0 15 8 32 26 39 41 17 37 17 1283 0 1320 -7
15 -24 33 -39 41 -40 20 -9471 21 -9508 0z"/>
<path d="M251 4156 c-51 -28 -50 -15 -51 -698 0 -473 3 -644 12 -663 7 -15 24
-33 39 -41 42 -21 9466 -21 9508 0 15 8 32 26 39 41 17 37 17 1283 0 1320 -7
15 -24 33 -39 41 -40 20 -9471 21 -9508 0z"/>
<path d="M251 1806 c-51 -28 -50 -15 -51 -698 0 -473 3 -644 12 -663 7 -15 24
-33 39 -41 42 -21 9466 -21 9508 0 15 8 32 26 39 41 17 37 17 1283 0 1320 -7
15 -24 33 -39 41 -40 20 -9471 21 -9508 0z"/>
</g>
</svg>
