<svg xmlns="http://www.w3.org/2000/svg" viewBox="0 0 1350.7 262.1"><defs><style>.cls-1{isolation:isolate;}.cls-2{fill:#00a41c;}.cls-2,.cls-3,.cls-4{fill-rule:evenodd;}.cls-3{fill:#fff;}</style></defs><title>besoccer</title><g id="caja_verde" data-name="caja verde" class="cls-1"><g id="caja_verde-2" data-name="caja verde"><path class="cls-2" d="M286.4,63.8H62.2A16.5,16.5,0,0,0,45.6,80.3V304.6a16.5,16.5,0,0,0,16.6,16.5H286.4a16.5,16.5,0,0,0,16.5-16.5V80.3A16.5,16.5,0,0,0,286.4,63.8Z" transform="translate(-43.3 -61.4)"/></g></g><g id="normal" class="cls-1"><g id="normal-2" data-name="normal"><path class="cls-3" d="M174.3,175a17.5,17.5,0,1,0,17.4,17.5A17.3,17.3,0,0,0,174.3,175ZM289.2,61.4H59.5A16.2,16.2,0,0,0,43.3,77.6V307.4a16.2,16.2,0,0,0,16.2,16.2H289.2a16.2,16.2,0,0,0,16.2-16.2V77.6A16.2,16.2,0,0,0,289.2,61.4ZM169.5,314.6H65c-9,0-12.1-3.1-12.1-12V82.5c0-9,3.1-12.1,12.1-12.1H169.5v63.5a58.8,58.8,0,0,0,0,117.2ZM136,192.5a38.4,38.4,0,1,1,38.3,38.6A38.4,38.4,0,0,1,136,192.5ZM295.8,302.6c0,8.9-3.1,12-12.1,12H179.1V251.1a58.8,58.8,0,0,0,0-117.2V70.4H283.7c9,0,12.1,3.1,12.1,12.1Z" transform="translate(-43.3 -61.4)"/></g></g><g id="BESOCCER_copy" data-name="BESOCCER copy" class="cls-1"><g id="BESOCCER_copy-2" data-name="BESOCCER copy"><path class="cls-4" d="M446.4,186.8A32.7,32.7,0,0,0,460,173.6a37.2,37.2,0,0,0,4.7-18.3,40,40,0,0,0-2.3-13.6,34.1,34.1,0,0,0-7.3-11.8,42.3,42.3,0,0,0-10.6-8.7,45.4,45.4,0,0,0-12.1-4.5,69,69,0,0,0-13-1.8q-6.7-.3-13.8-.3H357.7v34.9H411a37.3,37.3,0,0,1,5.9.4,11.9,11.9,0,0,1,5,1.7,9.7,9.7,0,0,1,3.4,3.8,13.5,13.5,0,0,1,1.2,6.1c0,4.8-1.5,8.1-4.5,9.7a22.9,22.9,0,0,1-11.2,2.5H357.7v33.2h57.8a40.5,40.5,0,0,1,7,.6,17.6,17.6,0,0,1,6,1.9,11,11,0,0,1,4.1,4.2,12.9,12.9,0,0,1,1.6,6.8,14.6,14.6,0,0,1-1.6,7.3,12.2,12.2,0,0,1-4.1,4.6,18.3,18.3,0,0,1-5.9,2.4,39.7,39.7,0,0,1-7.1.7H357.7V270h63.6a66.1,66.1,0,0,0,12.8-1.3,51.5,51.5,0,0,0,23.7-11.8,36.5,36.5,0,0,0,10.8-15.3,52.8,52.8,0,0,0,3.5-18.6c0-8.8-2.1-16.3-6.4-22.5S455,189.7,446.4,186.8ZM481.9,270h86V235.2H519.8V208.6h25.5V173.5H519.8V149.2h48.1V114.4h-86Zm189.7-72.8a49,49,0,0,0-11.1-8.8,120.7,120.7,0,0,0-13.9-7.2l-6.7-3c-3-1.3-6-2.7-9-4.3a95.5,95.5,0,0,1-8.5-4.6,16.3,16.3,0,0,1-5.4-4.7,12,12,0,0,1-1.7-6.4,10.2,10.2,0,0,1,4.2-8.6,14.3,14.3,0,0,1,9.3-3.3q7.2,0,10.2,4.2a22.2,22.2,0,0,1,3.5,10.6h37.9a71.3,71.3,0,0,0-2.3-15.8,40.1,40.1,0,0,0-7.4-14.1,46.9,46.9,0,0,0-18.5-12.6,62.3,62.3,0,0,0-22.2-4.2,61.4,61.4,0,0,0-19,3,58,58,0,0,0-16.8,8.6,41.9,41.9,0,0,0-12,13.8,37.4,37.4,0,0,0-4.6,18.8,36.6,36.6,0,0,0,3,15.3,40.3,40.3,0,0,0,8,11.8,54.9,54.9,0,0,0,11.6,8.9,105.8,105.8,0,0,0,13.9,6.9q3.3,1.5,6.6,2.7c2.2.9,4.5,1.8,6.9,3l6,2.5a22.3,22.3,0,0,1,5.1,3.3,13.7,13.7,0,0,1,3.7,4.3,13.2,13.2,0,0,1,1.3,6.2,13.6,13.6,0,0,1-4.3,10.4,14.5,14.5,0,0,1-10.4,4.2,13.4,13.4,0,0,1-7.1-1.8,13.8,13.8,0,0,1-4.9-4.7,20,20,0,0,1-2.8-6.5,30.6,30.6,0,0,1-.9-7.4h-38v4.6a49.2,49.2,0,0,0,4.2,21A40.1,40.1,0,0,0,591,258.1a51.1,51.1,0,0,0,17.2,8.9,71.9,71.9,0,0,0,21.2,3,75.1,75.1,0,0,0,20.7-2.7,44.4,44.4,0,0,0,16.5-8.4,39.2,39.2,0,0,0,11-14.3c2.7-5.7,4-12.5,4-20.4a42.6,42.6,0,0,0-2.6-15.5A38.4,38.4,0,0,0,671.6,197.2Zm152.6-60.5a76.4,76.4,0,0,0-25.1-16.4,79.3,79.3,0,0,0-30.8-5.9c-13,0-24.9,2.5-35.6,7.7a74.8,74.8,0,0,0-27.6,23,60.4,60.4,0,0,0-9.8,16.6,86.2,86.2,0,0,0-6,32,73,73,0,0,0,6.3,30.2,77.6,77.6,0,0,0,42.2,40.3,79,79,0,0,0,30.3,5.8,80.2,80.2,0,0,0,30.9-5.9A77.3,77.3,0,0,0,841.2,223a78.4,78.4,0,0,0,0-61.6A76.2,76.2,0,0,0,824.2,136.7Zm-18,72a45,45,0,0,1-8.2,14.1,39.4,39.4,0,0,1-12.7,9.8,37.5,37.5,0,0,1-16.4,3.6,39.5,39.5,0,0,1-17-3.6,41.1,41.1,0,0,1-13.1-9.7,42.9,42.9,0,0,1-8.2-14.1,48.9,48.9,0,0,1-2.9-17.2,46.4,46.4,0,0,1,2.9-16.8,42.7,42.7,0,0,1,8.1-13.9,41.1,41.1,0,0,1,12.9-9.6,39.6,39.6,0,0,1,16.7-3.5,38.5,38.5,0,0,1,16.7,3.6,39.1,39.1,0,0,1,12.9,9.9,43.9,43.9,0,0,1,8.3,14.2,49.3,49.3,0,0,1,2.9,16.7A48.6,48.6,0,0,1,806.2,208.7Zm97.3-47.4a41.3,41.3,0,0,1,12.8-9.7,37.3,37.3,0,0,1,16.5-3.6,35.2,35.2,0,0,1,22,7.4,42.7,42.7,0,0,1,14.1,19h40a51.6,51.6,0,0,0-3.7-12.9,97,97,0,0,0-6.2-12,75.9,75.9,0,0,0-28.3-26.1,80,80,0,0,0-37.9-9,78,78,0,0,0-30.6,5.9,74.5,74.5,0,0,0-24.9,16.4,77.7,77.7,0,0,0-16.7,24.6,75.5,75.5,0,0,0-6.1,30.5,77.2,77.2,0,0,0,6.2,30.9,79.9,79.9,0,0,0,98.5,43.1,77.3,77.3,0,0,0,22.1-11.9,75.8,75.8,0,0,0,17.1-18.6,77.3,77.3,0,0,0,10.5-24.2h-40a46,46,0,0,1-14.1,18.3c-6.1,4.7-13.4,7-22,7a36,36,0,0,1-16.5-3.7,39.3,39.3,0,0,1-12.8-10,45.3,45.3,0,0,1-8.1-14.2,51.8,51.8,0,0,1-2.8-16.7,50.7,50.7,0,0,1,2.8-16.6A42.7,42.7,0,0,1,903.5,161.3Zm162.9,0a41.3,41.3,0,0,1,12.8-9.7,37.3,37.3,0,0,1,16.5-3.6,35.2,35.2,0,0,1,22,7.4,42.7,42.7,0,0,1,14.1,19h40a51.6,51.6,0,0,0-3.7-12.9,97,97,0,0,0-6.2-12,75.9,75.9,0,0,0-28.3-26.1,80,80,0,0,0-37.9-9,78,78,0,0,0-30.6,5.9,74.5,74.5,0,0,0-24.9,16.4,77.7,77.7,0,0,0-16.7,24.6,75.5,75.5,0,0,0-6.1,30.5,77.2,77.2,0,0,0,6.2,30.9,79.9,79.9,0,0,0,98.5,43.1,77.3,77.3,0,0,0,22.1-11.9,75.8,75.8,0,0,0,17.1-18.6,77.3,77.3,0,0,0,10.5-24.2h-40a46,46,0,0,1-14.1,18.3c-6.1,4.7-13.4,7-22,7a36,36,0,0,1-16.5-3.7,39.3,39.3,0,0,1-12.8-10,45.3,45.3,0,0,1-8.1-14.2,51.8,51.8,0,0,1-2.8-16.7,50.7,50.7,0,0,1,2.8-16.6A42.7,42.7,0,0,1,1066.4,161.3ZM1181.3,270h86V235.2h-48V208.6h25.5V173.5h-25.5V149.2h48V114.4h-86Zm170.8-52.9a43.5,43.5,0,0,0,16.3-5.9,45.4,45.4,0,0,0,12.1-11,51.3,51.3,0,0,0,7.6-14.7,57.8,57.8,0,0,0,2.6-17.2,59,59,0,0,0-4.8-23.4,50.6,50.6,0,0,0-14.3-19.1,46.2,46.2,0,0,0-11-6.2,56.5,56.5,0,0,0-12-3.4A105.4,105.4,0,0,0,1336,115l-12.5-.2h-48.9v34.7h52.6a38.5,38.5,0,0,1,9.7,1.1,26.5,26.5,0,0,1,8.2,3.6,19,19,0,0,1,5.6,6.6,22.5,22.5,0,0,1,2,9.8,24.1,24.1,0,0,1-1.9,10.2,19.4,19.4,0,0,1-5.5,6.8,22.7,22.7,0,0,1-8.3,3.9,47.6,47.6,0,0,1-10.2,1.1h-33.3l55.3,77.4H1394Z" transform="translate(-43.3 -61.4)"/></g></g></svg>