<?xml version="1.0" encoding="UTF-8"?>
<svg xmlns="http://www.w3.org/2000/svg" xmlns:xlink="http://www.w3.org/1999/xlink" width="12px" height="12px" viewBox="0 0 12 12" version="1.1">
<g id="surface1">
<path style=" stroke:none;fill-rule:nonzero;fill:rgb(0%,0%,0%);fill-opacity:1;" d="M 4.320312 2.707031 C 4.832031 2.867188 5.25 3.195312 5.539062 3.628906 L 5.578125 3.398438 C 5.726562 2.6875 5.402344 1.910156 4.679688 1.683594 C 3.957031 1.457031 3.25 1.914062 2.964844 2.582031 L 2.898438 2.730469 C 3.136719 2.648438 3.390625 2.601562 3.644531 2.601562 C 3.871094 2.601562 4.097656 2.636719 4.320312 2.707031 Z M 4.320312 2.707031 "/>
<path style=" stroke:none;fill-rule:nonzero;fill:rgb(0%,0%,0%);fill-opacity:1;" d="M 1.414062 7.546875 L 2.828125 6.132812 C 2.046875 6.132812 1.414062 6.765625 1.414062 7.546875 Z M 1.414062 7.546875 "/>
<path style=" stroke:none;fill-rule:nonzero;fill:rgb(0%,0%,0%);fill-opacity:1;" d="M 6.460938 3.628906 C 6.75 3.195312 7.167969 2.867188 7.679688 2.707031 C 7.902344 2.636719 8.128906 2.601562 8.355469 2.601562 C 8.609375 2.601562 8.863281 2.648438 9.101562 2.730469 L 9.035156 2.582031 C 8.75 1.914062 8.042969 1.457031 7.320312 1.683594 C 6.597656 1.910156 6.273438 2.6875 6.421875 3.398438 Z M 6.460938 3.628906 "/>
<path style=" stroke:none;fill-rule:nonzero;fill:rgb(0%,0%,0%);fill-opacity:1;" d="M 9.171875 4.71875 C 7.855469 4.71875 6.75 5.617188 6.433594 6.835938 C 6.371094 6.800781 6.304688 6.773438 6.234375 6.757812 C 6.273438 6.601562 6.328125 6.453125 6.390625 6.308594 L 6.394531 6.328125 C 6.863281 5.257812 7.929688 4.511719 9.171875 4.511719 C 9.78125 4.511719 10.347656 4.691406 10.824219 5.003906 L 10.527344 4.363281 C 10.070312 3.277344 8.914062 2.535156 7.742188 2.902344 C 6.875 3.171875 6.359375 3.9375 6.246094 4.78125 C 6.171875 4.753906 6.085938 4.734375 6 4.734375 C 5.914062 4.734375 5.828125 4.753906 5.753906 4.78125 C 5.640625 3.9375 5.125 3.171875 4.257812 2.902344 C 3.085938 2.535156 1.929688 3.277344 1.472656 4.363281 L 1.175781 5.003906 C 1.652344 4.691406 2.21875 4.511719 2.828125 4.511719 C 4.066406 4.511719 5.136719 5.257812 5.605469 6.328125 L 5.609375 6.308594 C 5.671875 6.453125 5.726562 6.601562 5.765625 6.757812 C 5.695312 6.773438 5.628906 6.800781 5.566406 6.835938 C 5.25 5.617188 4.144531 4.71875 2.828125 4.71875 C 1.265625 4.71875 0 5.984375 0 7.546875 C 0 9.109375 1.265625 10.375 2.828125 10.375 C 4.089844 10.375 5.15625 9.550781 5.523438 8.414062 C 5.660156 8.5 5.824219 8.550781 6 8.550781 C 6.175781 8.550781 6.339844 8.5 6.476562 8.414062 C 6.84375 9.550781 7.910156 10.375 9.171875 10.375 C 10.734375 10.375 12 9.109375 12 7.546875 C 12 5.984375 10.734375 4.71875 9.171875 4.71875 Z M 2.828125 9.460938 C 1.769531 9.460938 0.914062 8.605469 0.914062 7.546875 C 0.914062 6.488281 1.769531 5.628906 2.828125 5.628906 C 3.886719 5.628906 4.746094 6.488281 4.746094 7.546875 C 4.746094 8.605469 3.886719 9.460938 2.828125 9.460938 Z M 9.171875 9.460938 C 8.113281 9.460938 7.253906 8.605469 7.253906 7.546875 C 7.253906 6.488281 8.113281 5.628906 9.171875 5.628906 C 10.230469 5.628906 11.085938 6.488281 11.085938 7.546875 C 11.085938 8.605469 10.230469 9.460938 9.171875 9.460938 Z M 9.171875 9.460938 "/>
<path style=" stroke:none;fill-rule:nonzero;fill:rgb(0%,0%,0%);fill-opacity:1;" d="M 7.757812 7.546875 L 9.171875 6.132812 C 8.390625 6.132812 7.757812 6.765625 7.757812 7.546875 Z M 7.757812 7.546875 "/>
</g>
</svg>
