<?xml version="1.0" encoding="UTF-8"?>
<svg xmlns="http://www.w3.org/2000/svg" xmlns:xlink="http://www.w3.org/1999/xlink" width="px" height="50px" viewBox="0 0 175 50" version="1.1">
<g id="surface1">
<path style=" stroke:none;fill-rule:nonzero;fill:rgb(96.862745%,28.627451%,25.882353%);fill-opacity:1;" d="M 10.253906 7.039062 C 7.570312 10.804688 5.265625 14.058594 5.125 14.265625 C 4.992188 14.46875 4 15.875 2.921875 17.378906 C 1.84375 18.871094 0.835938 20.429688 0.648438 20.820312 C -0.121094 22.601562 -0.0859375 24.433594 0.75 26.199219 C 1.109375 26.933594 5.074219 32.363281 5.246094 32.363281 C 5.296875 32.363281 8.9375 30.53125 13.347656 28.289062 L 21.34375 24.230469 L 16.183594 24.144531 C 11.996094 24.074219 11.039062 24.007812 11.074219 23.835938 C 11.089844 23.699219 12.78125 21.25 14.835938 18.375 C 16.867188 15.496094 18.882812 12.652344 19.3125 12.054688 C 19.738281 11.457031 21.738281 8.648438 23.753906 5.804688 C 25.773438 2.945312 27.496094 0.53125 27.566406 0.394531 C 27.6875 0.207031 26.59375 0.171875 21.414062 0.1875 L 15.125 0.1875 Z M 10.253906 7.039062 "/>
<path style=" stroke:none;fill-rule:nonzero;fill:rgb(96.862745%,28.627451%,25.882353%);fill-opacity:1;" d="M 35.90625 4.828125 C 34.128906 7.398438 31.789062 10.753906 30.726562 12.292969 C 28.984375 14.792969 25.6875 19.554688 24.265625 21.574219 C 22.046875 24.777344 20.644531 26.78125 18.796875 29.453125 C 17.621094 31.148438 16.0625 33.390625 15.347656 34.417969 C 14.613281 35.445312 13.773438 36.78125 13.46875 37.363281 C 12.972656 38.339844 12.921875 38.578125 12.921875 39.984375 C 12.902344 41.300781 12.972656 41.660156 13.363281 42.5 C 13.84375 43.542969 18.390625 49.65625 18.664062 49.65625 C 18.765625 49.65625 21.5 48.304688 24.761719 46.644531 C 28.011719 44.984375 32.28125 42.808594 34.25 41.796875 L 37.820312 39.984375 L 31.546875 39.898438 L 25.277344 39.8125 L 27.769531 36.214844 C 29.136719 34.230469 30.625 32.089844 31.070312 31.457031 C 31.515625 30.820312 32.761719 29.023438 33.835938 27.484375 C 35.75 24.742188 38.433594 20.875 41.988281 15.769531 C 42.945312 14.402344 43.953125 12.929688 44.261719 12.5 C 45.476562 10.753906 47.921875 7.242188 50.160156 4.042969 C 51.476562 2.15625 52.621094 0.515625 52.6875 0.394531 C 52.808594 0.207031 51.558594 0.171875 45.988281 0.171875 L 39.152344 0.171875 Z M 35.90625 4.828125 "/>
<path style=" stroke:none;fill-rule:nonzero;fill:rgb(96.862745%,28.627451%,25.882353%);fill-opacity:1;" d="M 62.035156 21.0625 C 62.035156 31.199219 62.070312 32.429688 62.308594 32.929688 C 62.464844 33.234375 63.164062 34.109375 63.863281 34.878906 L 65.148438 36.300781 L 77.417969 36.300781 L 77.417969 30.992188 L 67.335938 30.992188 L 67.335938 9.761719 L 62.035156 9.761719 Z M 62.035156 21.0625 "/>
<path style=" stroke:none;fill-rule:nonzero;fill:rgb(96.862745%,28.627451%,25.882353%);fill-opacity:1;" d="M 86.421875 10.820312 C 86.285156 11.421875 85.894531 12.980469 85.535156 14.296875 C 84.953125 16.558594 84.269531 19.210938 81.621094 29.691406 C 80.816406 32.859375 80.492188 34.417969 80.492188 35.207031 L 80.492188 36.300781 L 85.242188 36.300781 L 85.449219 35.394531 C 85.570312 34.914062 85.789062 33.988281 85.980469 33.375 L 86.304688 32.261719 L 88.902344 30.992188 C 94.199219 28.457031 94.695312 28.253906 94.761719 28.476562 C 94.867188 28.75 96.199219 33.886719 96.507812 35.222656 L 96.761719 36.300781 L 101.34375 36.300781 L 101.34375 35.238281 C 101.34375 34.640625 101.15625 33.511719 100.914062 32.621094 C 100.675781 31.78125 99.804688 28.375 98.949219 25.085938 C 97.242188 18.476562 96.796875 16.746094 96.0625 13.957031 C 95.789062 12.910156 95.515625 11.832031 95.464844 11.542969 C 95.394531 11.25 95.070312 10.753906 94.746094 10.429688 L 94.148438 9.847656 L 90.40625 9.792969 L 86.679688 9.742188 Z M 91.328125 15.015625 C 91.398438 15.375 91.6875 16.507812 91.960938 17.550781 C 92.984375 21.371094 94.335938 26.730469 94.335938 26.96875 C 94.335938 27.191406 93.839844 27.226562 91.003906 27.226562 C 87.226562 27.226562 87.464844 27.328125 87.910156 25.753906 C 88.199219 24.761719 90.164062 17.140625 90.523438 15.667969 C 90.644531 15.101562 90.796875 14.539062 90.832031 14.417969 C 90.96875 14.042969 91.207031 14.347656 91.328125 15.015625 Z M 91.328125 15.015625 "/>
<path style=" stroke:none;fill-rule:nonzero;fill:rgb(96.862745%,28.627451%,25.882353%);fill-opacity:1;" d="M 104.417969 21.199219 C 104.417969 31.609375 104.4375 32.671875 104.710938 33.046875 C 104.863281 33.289062 105.5625 34.109375 106.265625 34.898438 L 107.53125 36.300781 L 113.628906 36.265625 L 119.714844 36.214844 L 119.714844 31.078125 L 114.722656 31.027344 L 109.71875 30.992188 L 109.71875 9.761719 L 104.417969 9.761719 Z M 104.417969 21.199219 "/>
<path style=" stroke:none;fill-rule:nonzero;fill:rgb(96.862745%,28.627451%,25.882353%);fill-opacity:1;" d="M 123.046875 23.03125 L 123.046875 36.300781 L 128.34375 36.300781 L 128.34375 9.761719 L 123.046875 9.761719 Z M 123.046875 23.03125 "/>
<path style=" stroke:none;fill-rule:nonzero;fill:rgb(96.862745%,28.627451%,25.882353%);fill-opacity:1;" d="M 139.402344 9.929688 C 137.351562 10.292969 135.148438 11.816406 133.933594 13.734375 C 132.71875 15.632812 132.71875 15.667969 132.652344 22.652344 C 132.601562 27.960938 132.632812 29.109375 132.875 30.015625 C 133.660156 33.117188 136 35.515625 138.957031 36.214844 C 140.425781 36.558594 144.289062 36.558594 145.757812 36.214844 C 148.03125 35.667969 150.101562 33.972656 151.140625 31.816406 C 151.945312 30.152344 152.152344 29.058594 152.066406 27.070312 C 151.980469 25.015625 151.707031 24.433594 149.84375 22.378906 L 148.476562 20.890625 L 142.1875 20.890625 L 142.1875 26.027344 L 146.800781 26.027344 L 146.800781 27.996094 C 146.800781 31.351562 146.597656 31.507812 142.359375 31.507812 C 139.929688 31.507812 139.332031 31.457031 138.941406 31.214844 C 138.015625 30.667969 138 30.582031 137.949219 23.425781 C 137.898438 16.042969 137.949219 15.597656 138.820312 15.050781 C 139.316406 14.742188 139.625 14.726562 142.5625 14.761719 C 145.757812 14.8125 145.777344 14.8125 146.21875 15.257812 C 146.492188 15.53125 146.699219 15.957031 146.75 16.402344 L 146.851562 17.125 L 152.066406 17.125 L 151.910156 16.421875 C 151.195312 13.253906 148.273438 10.429688 145.179688 9.929688 C 143.980469 9.726562 140.582031 9.742188 139.402344 9.929688 Z M 139.402344 9.929688 "/>
<path style=" stroke:none;fill-rule:nonzero;fill:rgb(96.862745%,28.627451%,25.882353%);fill-opacity:1;" d="M 159.535156 13.046875 C 159.070312 14.863281 158.457031 17.3125 158.148438 18.492188 C 157.859375 19.675781 157.140625 22.449219 156.578125 24.65625 C 155.996094 26.867188 155.242188 29.761719 154.902344 31.078125 C 154.476562 32.636719 154.234375 33.972656 154.183594 34.878906 L 154.132812 36.300781 L 158.902344 36.300781 L 159.105469 35.394531 C 159.535156 33.339844 159.976562 32.175781 160.355469 32.039062 C 160.796875 31.867188 166.179688 29.296875 167.394531 28.679688 C 167.855469 28.441406 168.285156 28.304688 168.351562 28.390625 C 168.453125 28.492188 170.386719 35.925781 170.386719 36.199219 C 170.386719 36.25 171.429688 36.300781 172.691406 36.300781 L 175 36.300781 L 175 35.222656 C 175 34.640625 174.914062 33.886719 174.828125 33.5625 C 174.726562 33.234375 174.230469 31.335938 173.71875 29.367188 C 173.222656 27.378906 172.523438 24.691406 172.179688 23.375 C 171.839844 22.054688 171.070312 19.042969 170.472656 16.679688 C 169.085938 11.25 168.882812 10.652344 168.285156 10.207031 C 167.839844 9.863281 167.53125 9.847656 164.078125 9.792969 L 160.371094 9.742188 Z M 165.121094 15.582031 C 165.429688 16.867188 167.546875 25.136719 167.820312 26.027344 C 168.199219 27.292969 168.367188 27.226562 164.660156 27.226562 C 161.925781 27.226562 161.328125 27.175781 161.328125 26.984375 C 161.328125 26.847656 161.636719 25.53125 162.027344 24.042969 C 162.40625 22.535156 163.089844 19.8125 163.566406 17.980469 C 164.027344 16.148438 164.457031 14.539062 164.488281 14.402344 C 164.644531 13.988281 164.867188 14.402344 165.121094 15.582031 Z M 165.121094 15.582031 "/>
</g>
</svg>
