<?xml version="1.0" encoding="UTF-8"?>
<svg xmlns="http://www.w3.org/2000/svg" xmlns:xlink="http://www.w3.org/1999/xlink" width="153px" height="50px" viewBox="0 0 153 50" version="1.1">
<g id="surface1">
<path style=" stroke:none;fill-rule:nonzero;fill:rgb(0%,83.137255%,83.921569%);fill-opacity:1;" d="M 76.804688 0 L 79.832031 0 C 81.53125 0.046875 83.277344 0.355469 84.75 1.242188 C 85.738281 1.832031 86.566406 2.695312 87.09375 3.71875 C 87.730469 4.925781 87.964844 6.308594 87.964844 7.664062 C 86.128906 7.667969 84.289062 7.667969 82.449219 7.667969 C 82.417969 7.058594 82.554688 6.410156 82.289062 5.839844 C 82.066406 5.367188 81.527344 5.160156 81.035156 5.164062 C 79.25 5.160156 77.46875 5.164062 75.683594 5.160156 C 75.277344 5.15625 74.832031 5.238281 74.535156 5.542969 C 74.25 5.824219 74.160156 6.238281 74.160156 6.625 C 74.160156 10.988281 74.160156 15.351562 74.160156 19.714844 C 74.160156 20.101562 74.246094 20.519531 74.523438 20.808594 C 74.800781 21.097656 75.214844 21.199219 75.605469 21.199219 C 77.285156 21.199219 78.964844 21.199219 80.644531 21.199219 C 81.066406 21.207031 81.523438 21.214844 81.890625 20.972656 C 82.28125 20.726562 82.445312 20.246094 82.449219 19.800781 C 82.457031 18.695312 82.449219 17.59375 82.449219 16.488281 C 81.175781 16.484375 79.902344 16.5 78.628906 16.480469 C 78.644531 14.761719 78.621094 13.042969 78.636719 11.328125 C 80.644531 11.335938 82.652344 11.328125 84.65625 11.332031 C 84.777344 11.308594 84.839844 11.421875 84.90625 11.496094 C 85.582031 12.347656 86.269531 13.1875 86.949219 14.035156 C 87.535156 14.746094 87.914062 15.632812 87.953125 16.558594 C 87.992188 18.042969 87.988281 19.558594 87.578125 21 C 87.265625 22.144531 86.707031 23.238281 85.878906 24.097656 C 85.09375 24.921875 84.078125 25.507812 83 25.859375 C 81.761719 26.265625 80.449219 26.382812 79.148438 26.363281 C 77.730469 26.34375 76.296875 26.441406 74.894531 26.179688 C 73.410156 25.917969 71.949219 25.300781 70.867188 24.230469 C 69.792969 23.183594 69.148438 21.761719 68.867188 20.300781 C 68.566406 18.863281 68.664062 17.386719 68.648438 15.929688 C 68.648438 13.40625 68.648438 10.886719 68.648438 8.363281 C 68.660156 6.765625 68.925781 5.125 69.691406 3.703125 C 70.277344 2.601562 71.1875 1.679688 72.28125 1.082031 C 73.65625 0.316406 75.246094 0.0390625 76.804688 0 Z M 114.910156 0.277344 C 119.191406 0.253906 123.480469 0.292969 127.765625 0.28125 C 136.164062 0.300781 144.5625 0.265625 152.960938 0.277344 C 152.988281 8.855469 152.953125 17.433594 152.976562 26.015625 C 141.429688 25.992188 129.882812 25.984375 118.335938 26.015625 C 117.574219 25 116.65625 24.109375 115.9375 23.0625 C 115.5 22.429688 115.140625 21.730469 114.996094 20.96875 C 114.882812 20.402344 114.929688 19.820312 114.921875 19.246094 C 114.894531 12.921875 114.929688 6.601562 114.910156 0.277344 Z M 119.085938 6.703125 C 119.082031 8.03125 119.078125 9.359375 119.105469 10.6875 C 120.414062 10.675781 121.722656 10.683594 123.03125 10.679688 C 123.070312 13.816406 123.019531 16.957031 123.054688 20.09375 C 124.851562 20.160156 126.652344 20.128906 128.457031 20.136719 C 128.503906 16.988281 128.4375 13.835938 128.488281 10.6875 C 129.804688 10.679688 131.125 10.6875 132.441406 10.691406 C 132.4375 9.355469 132.445312 8.023438 132.441406 6.6875 C 127.988281 6.703125 123.539062 6.667969 119.085938 6.703125 Z M 133.683594 9.558594 C 133.753906 10.035156 133.933594 10.484375 134.078125 10.945312 C 135.066406 13.972656 136.148438 16.972656 137.074219 20.019531 C 139.828125 20.230469 142.59375 20.152344 145.351562 20.066406 C 146.363281 16.6875 147.589844 13.375 148.65625 10.011719 C 148.953125 8.929688 148.796875 7.800781 148.828125 6.695312 C 147.210938 6.695312 145.59375 6.671875 143.980469 6.699219 C 143.085938 9.957031 142.273438 13.242188 141.308594 16.480469 C 141.195312 16.3125 141.144531 16.117188 141.066406 15.9375 C 139.898438 12.953125 139.398438 9.765625 138.433594 6.71875 C 138.21875 6.652344 137.976562 6.707031 137.75 6.691406 C 136.378906 6.683594 135.007812 6.691406 133.636719 6.683594 C 133.640625 7.640625 133.539062 8.605469 133.683594 9.558594 Z M 0.0195312 0.289062 C 1.855469 0.289062 3.695312 0.289062 5.53125 0.289062 C 5.53125 7.160156 5.53125 14.035156 5.53125 20.90625 C 8.777344 20.914062 12.019531 20.910156 15.265625 20.910156 C 15.261719 22.632812 15.277344 24.355469 15.257812 26.074219 C 11.242188 26.058594 7.226562 26.074219 3.214844 26.066406 C 2.683594 25.410156 2.152344 24.753906 1.621094 24.09375 C 1.25 23.625 0.84375 23.175781 0.558594 22.640625 C 0.195312 21.992188 0.0195312 21.25 0.0195312 20.507812 C 0.0195312 13.769531 0.015625 7.027344 0.0195312 0.289062 Z M 24.164062 0.394531 C 24.171875 0.222656 24.375 0.308594 24.476562 0.285156 C 26.46875 0.292969 28.457031 0.289062 30.449219 0.289062 C 30.933594 0.285156 31.441406 0.363281 31.851562 0.640625 C 32.316406 0.945312 32.597656 1.457031 32.742188 1.976562 C 34.578125 8.625 36.40625 15.273438 38.242188 21.921875 C 38.648438 23.265625 38.492188 24.6875 38.523438 26.070312 C 36.894531 26.070312 35.261719 26.070312 33.632812 26.070312 C 32.992188 23.460938 32.324219 20.855469 31.703125 18.242188 C 30.507812 18.804688 29.351562 19.441406 28.171875 20.03125 C 26.710938 20.777344 25.257812 21.53125 23.796875 22.273438 C 23.472656 23.535156 23.152344 24.796875 22.84375 26.0625 C 21.214844 26.082031 19.582031 26.054688 17.953125 26.074219 C 17.964844 24.636719 17.8125 23.152344 18.269531 21.761719 C 20.238281 14.640625 22.199219 7.515625 24.164062 0.394531 Z M 27.9375 5.445312 C 26.972656 9.378906 25.996094 13.304688 25.039062 17.238281 C 27.167969 17.230469 29.300781 17.246094 31.433594 17.230469 C 30.46875 13.304688 29.488281 9.382812 28.539062 5.453125 C 28.339844 5.445312 28.140625 5.441406 27.9375 5.445312 Z M 41.019531 20.34375 C 41.027344 13.65625 41.007812 6.96875 41.027344 0.285156 C 42.863281 0.296875 44.699219 0.285156 46.53125 0.289062 C 46.535156 4.765625 46.53125 9.242188 46.535156 13.722656 C 46.542969 16.117188 46.515625 18.519531 46.546875 20.917969 C 49.785156 20.902344 53.027344 20.914062 56.269531 20.910156 C 56.273438 22.625 56.257812 24.339844 56.273438 26.054688 C 52.335938 26.089844 48.394531 26.058594 44.453125 26.070312 C 44.359375 26.058594 44.226562 26.105469 44.167969 26.007812 C 43.660156 25.382812 43.15625 24.757812 42.652344 24.128906 C 42.253906 23.628906 41.820312 23.148438 41.527344 22.578125 C 41.15625 21.894531 41.003906 21.113281 41.019531 20.34375 Z M 59.390625 0.285156 C 61.226562 0.285156 63.066406 0.285156 64.902344 0.285156 C 64.898438 8.882812 64.910156 17.476562 64.894531 26.074219 C 63.058594 26.054688 61.21875 26.085938 59.382812 26.058594 C 59.394531 17.46875 59.386719 8.875 59.390625 0.285156 Z M 90.285156 20.539062 C 92.148438 13.789062 94 7.035156 95.875 0.285156 C 98.007812 0.296875 100.140625 0.28125 102.273438 0.292969 C 102.875 0.296875 103.507812 0.5 103.902344 0.972656 C 104.285156 1.40625 104.425781 1.980469 104.570312 2.527344 C 106.253906 8.636719 107.941406 14.746094 109.625 20.851562 C 109.832031 21.652344 110.117188 22.441406 110.164062 23.269531 C 110.222656 24.203125 110.1875 25.136719 110.195312 26.070312 C 108.566406 26.066406 106.933594 26.074219 105.304688 26.066406 C 104.660156 23.453125 104.007812 20.84375 103.363281 18.230469 C 100.730469 19.574219 98.101562 20.929688 95.46875 22.273438 C 95.148438 23.539062 94.828125 24.800781 94.511719 26.066406 C 92.882812 26.074219 91.253906 26.0625 89.625 26.074219 C 89.640625 24.875 89.539062 23.664062 89.761719 22.480469 C 89.910156 21.824219 90.113281 21.183594 90.285156 20.539062 Z M 99.613281 5.445312 C 98.648438 9.375 97.679688 13.304688 96.710938 17.234375 C 98.84375 17.238281 100.976562 17.238281 103.109375 17.234375 C 102.144531 13.304688 101.171875 9.378906 100.210938 5.449219 C 100.011719 5.445312 99.8125 5.445312 99.613281 5.445312 Z M 96.101562 34.527344 C 96.738281 34.417969 97.386719 34.476562 98.03125 34.460938 C 98.816406 34.480469 99.621094 34.390625 100.386719 34.625 C 101.765625 35.007812 102.902344 36.148438 103.28125 37.535156 C 103.527344 38.355469 103.421875 39.222656 103.445312 40.070312 C 103.480469 41.34375 102.90625 42.613281 101.921875 43.425781 C 101.1875 44.039062 100.238281 44.394531 99.28125 44.398438 C 98.441406 44.398438 97.601562 44.398438 96.761719 44.398438 C 95.46875 44.390625 94.207031 43.730469 93.449219 42.6875 C 92.890625 41.9375 92.601562 41 92.617188 40.066406 C 92.636719 39.148438 92.527344 38.199219 92.847656 37.316406 C 93.324219 35.886719 94.617188 34.773438 96.101562 34.527344 Z M 96.328125 36.636719 C 95.640625 36.804688 95.054688 37.34375 94.832031 38.019531 C 94.667969 38.472656 94.734375 38.964844 94.722656 39.4375 C 94.734375 39.910156 94.667969 40.398438 94.835938 40.851562 C 95.101562 41.667969 95.910156 42.273438 96.773438 42.285156 C 97.609375 42.289062 98.445312 42.289062 99.285156 42.285156 C 100.109375 42.277344 100.894531 41.722656 101.191406 40.949219 C 101.414062 40.421875 101.328125 39.835938 101.34375 39.277344 C 101.355469 38.742188 101.371094 38.175781 101.09375 37.699219 C 100.746094 37.039062 100.03125 36.585938 99.285156 36.578125 C 98.523438 36.574219 97.761719 36.582031 97.003906 36.574219 C 96.777344 36.574219 96.546875 36.582031 96.328125 36.636719 Z M 121.886719 34.65625 C 122.71875 34.636719 123.546875 34.65625 124.375 34.648438 C 124.945312 34.632812 125.519531 34.714844 126.050781 34.917969 C 127.28125 35.375 128.257812 36.445312 128.617188 37.707031 C 128.867188 38.550781 128.753906 39.4375 128.78125 40.300781 C 128.804688 41.570312 128.21875 42.832031 127.234375 43.628906 C 126.503906 44.234375 125.5625 44.582031 124.613281 44.585938 C 123.777344 44.585938 122.941406 44.585938 122.105469 44.585938 C 120.859375 44.578125 119.636719 43.96875 118.871094 42.984375 C 118.25 42.210938 117.925781 41.210938 117.957031 40.21875 C 117.976562 39.324219 117.863281 38.398438 118.171875 37.535156 C 118.6875 35.941406 120.21875 34.746094 121.886719 34.65625 Z M 121.953125 36.773438 C 121.246094 36.839844 120.59375 37.296875 120.28125 37.933594 C 120.03125 38.394531 120.046875 38.929688 120.054688 39.441406 C 120.070312 40.011719 119.980469 40.617188 120.214844 41.160156 C 120.515625 41.914062 121.285156 42.457031 122.097656 42.46875 C 122.886719 42.476562 123.671875 42.46875 124.460938 42.472656 C 124.828125 42.480469 125.199219 42.414062 125.53125 42.238281 C 126.242188 41.882812 126.707031 41.09375 126.683594 40.296875 C 126.660156 39.667969 126.734375 39.035156 126.628906 38.414062 C 126.429688 37.492188 125.5625 36.765625 124.617188 36.765625 C 123.730469 36.765625 122.839844 36.75 121.953125 36.773438 Z M 141.867188 34.785156 C 142.742188 34.804688 143.613281 34.773438 144.488281 34.800781 C 145.445312 36.503906 146.429688 38.191406 147.398438 39.886719 C 147.414062 39.886719 147.449219 39.886719 147.464844 39.890625 C 148.433594 38.191406 149.417969 36.503906 150.375 34.800781 C 151.246094 34.773438 152.121094 34.804688 152.992188 34.785156 C 151.175781 38.023438 149.296875 41.230469 147.460938 44.460938 C 147.445312 44.460938 147.414062 44.457031 147.394531 44.453125 C 145.769531 41.613281 144.136719 38.773438 142.507812 35.929688 C 142.296875 35.546875 142.054688 35.179688 141.867188 34.785156 Z M 142.613281 35.230469 C 144.199219 38.023438 145.804688 40.804688 147.402344 43.589844 C 147.417969 43.589844 147.449219 43.585938 147.464844 43.585938 C 149.058594 40.796875 150.667969 38.019531 152.257812 35.226562 C 151.71875 35.214844 151.179688 35.226562 150.644531 35.21875 C 149.578125 37.0625 148.527344 38.910156 147.464844 40.753906 C 147.449219 40.753906 147.414062 40.75 147.398438 40.75 C 146.335938 38.910156 145.289062 37.058594 144.21875 35.222656 C 143.683594 35.230469 143.148438 35.214844 142.613281 35.230469 Z M 22.695312 34.882812 C 23.484375 34.886719 24.273438 34.871094 25.0625 34.894531 C 25.046875 36.058594 25.0625 37.222656 25.054688 38.386719 C 26.898438 38.390625 28.742188 38.390625 30.582031 38.386719 C 30.578125 37.226562 30.597656 36.0625 30.574219 34.898438 C 31.367188 34.859375 32.164062 34.894531 32.960938 34.882812 C 32.964844 38.039062 32.960938 41.195312 32.964844 44.351562 C 32.171875 44.355469 31.378906 44.355469 30.585938 44.351562 C 30.585938 43.058594 30.585938 41.769531 30.585938 40.476562 C 28.742188 40.476562 26.902344 40.472656 25.058594 40.480469 C 25.0625 41.769531 25.058594 43.0625 25.058594 44.351562 C 24.273438 44.355469 23.488281 44.347656 22.703125 44.355469 C 22.691406 41.199219 22.703125 38.042969 22.695312 34.882812 Z M 33.585938 34.878906 C 34.570312 34.886719 35.558594 34.875 36.542969 34.886719 C 37.578125 36.039062 38.601562 37.207031 39.65625 38.339844 C 40.660156 37.183594 41.691406 36.050781 42.691406 34.890625 C 43.703125 34.871094 44.714844 34.890625 45.726562 34.878906 C 44.25 36.578125 42.707031 38.214844 41.21875 39.898438 C 40.949219 40.230469 40.800781 40.65625 40.796875 41.085938 C 40.792969 42.175781 40.804688 43.265625 40.792969 44.355469 C 40.007812 44.351562 39.226562 44.351562 38.441406 44.355469 C 38.425781 43.214844 38.449219 42.074219 38.429688 40.9375 C 38.402344 40.394531 38.09375 39.925781 37.722656 39.554688 C 36.511719 38.195312 35.304688 36.832031 34.09375 35.472656 C 33.921875 35.273438 33.738281 35.089844 33.585938 34.878906 Z M 46.371094 34.882812 C 48.617188 34.882812 50.863281 34.882812 53.113281 34.882812 C 54.082031 34.894531 55.105469 35.15625 55.8125 35.859375 C 56.8125 36.84375 56.8125 38.636719 55.835938 39.636719 C 55.140625 40.367188 54.101562 40.660156 53.117188 40.671875 C 51.910156 40.675781 50.703125 40.675781 49.496094 40.671875 C 49.144531 40.621094 48.765625 40.878906 48.753906 41.25 C 48.738281 42.285156 48.757812 43.320312 48.746094 44.355469 C 47.957031 44.355469 47.167969 44.347656 46.378906 44.359375 C 46.363281 41.199219 46.378906 38.042969 46.371094 34.882812 Z M 48.746094 36.953125 C 48.746094 37.5 48.742188 38.042969 48.75 38.589844 C 50.226562 38.585938 51.707031 38.59375 53.1875 38.585938 C 53.5625 38.570312 54.042969 38.46875 54.171875 38.0625 C 54.234375 37.773438 54.246094 37.40625 54.007812 37.1875 C 53.734375 36.972656 53.367188 36.960938 53.035156 36.953125 C 51.605469 36.953125 50.175781 36.953125 48.746094 36.953125 Z M 57.523438 34.878906 C 60.738281 34.886719 63.957031 34.882812 67.175781 34.882812 C 67.175781 35.578125 67.175781 36.273438 67.175781 36.96875 C 64.746094 36.96875 62.320312 36.96875 59.890625 36.972656 C 59.894531 37.453125 59.894531 37.9375 59.890625 38.417969 C 62.03125 38.433594 64.175781 38.421875 66.316406 38.425781 C 66.320312 39.113281 66.316406 39.800781 66.320312 40.488281 C 64.175781 40.492188 62.035156 40.488281 59.894531 40.488281 C 59.890625 41.082031 59.898438 41.675781 59.890625 42.269531 C 62.410156 42.285156 64.929688 42.273438 67.453125 42.277344 C 67.453125 42.96875 67.453125 43.660156 67.453125 44.351562 C 64.140625 44.355469 60.828125 44.355469 57.515625 44.351562 C 57.519531 41.195312 57.511719 38.035156 57.523438 34.878906 Z M 68.796875 34.882812 C 70.675781 34.882812 72.546875 34.882812 74.425781 34.882812 C 75.21875 34.894531 76.019531 34.832031 76.800781 35.003906 C 77.546875 35.164062 78.277344 35.511719 78.769531 36.109375 C 79.453125 36.929688 79.554688 38.175781 79.0625 39.117188 C 78.671875 39.871094 77.898438 40.328125 77.117188 40.585938 C 77.902344 41.835938 78.667969 43.101562 79.445312 44.355469 C 78.535156 44.355469 77.625 44.359375 76.714844 44.355469 C 76.144531 43.394531 75.5625 42.441406 74.988281 41.484375 C 74.796875 41.085938 74.40625 40.769531 73.949219 40.769531 C 73.214844 40.765625 72.484375 40.765625 71.75 40.769531 C 71.445312 40.753906 71.167969 41.03125 71.179688 41.332031 C 71.167969 42.34375 71.1875 43.351562 71.167969 44.363281 C 70.378906 44.351562 69.589844 44.355469 68.804688 44.359375 C 68.792969 41.203125 68.800781 38.042969 68.796875 34.882812 Z M 71.167969 36.957031 C 71.175781 37.53125 71.175781 38.105469 71.164062 38.679688 C 72.539062 38.714844 73.914062 38.683594 75.285156 38.695312 C 75.753906 38.699219 76.265625 38.710938 76.671875 38.441406 C 77.082031 38.183594 77.144531 37.484375 76.730469 37.203125 C 76.359375 36.949219 75.886719 36.945312 75.453125 36.941406 C 74.023438 36.953125 72.59375 36.925781 71.167969 36.957031 Z M 80.574219 34.882812 C 81.292969 34.886719 82.015625 34.878906 82.734375 34.882812 C 83.898438 36.585938 85.066406 38.28125 86.234375 39.980469 C 87.441406 38.28125 88.644531 36.578125 89.859375 34.882812 C 90.582031 34.886719 91.300781 34.882812 92.023438 34.882812 C 92.015625 38.042969 92.035156 41.199219 92.011719 44.359375 C 91.226562 44.347656 90.4375 44.355469 89.648438 44.355469 C 89.640625 42.632812 89.648438 40.910156 89.644531 39.1875 C 89.140625 39.804688 88.707031 40.484375 88.230469 41.128906 C 87.933594 41.511719 87.707031 41.96875 87.296875 42.242188 C 86.671875 42.679688 85.78125 42.671875 85.164062 42.226562 C 84.773438 41.957031 84.558594 41.519531 84.28125 41.148438 C 83.820312 40.503906 83.390625 39.832031 82.910156 39.207031 C 82.894531 40.925781 82.925781 42.648438 82.890625 44.367188 C 82.117188 44.34375 81.34375 44.367188 80.570312 44.351562 C 80.578125 41.195312 80.570312 38.039062 80.574219 34.882812 Z M 104.035156 36.980469 C 104.050781 36.289062 104.03125 35.597656 104.046875 34.910156 C 107.367188 34.917969 110.683594 34.910156 114.003906 34.914062 L 114.003906 36.988281 C 112.949219 36.992188 111.898438 36.984375 110.847656 36.992188 C 110.511719 36.980469 110.207031 37.28125 110.210938 37.617188 C 110.207031 39.875 110.210938 42.128906 110.210938 44.386719 C 109.433594 44.386719 108.65625 44.386719 107.875 44.386719 C 107.875 42.132812 107.878906 39.875 107.875 37.621094 C 107.882812 37.28125 107.574219 36.976562 107.234375 36.992188 C 106.167969 36.980469 105.101562 37 104.035156 36.980469 Z M 114.699219 34.914062 C 115.476562 34.90625 116.253906 34.921875 117.03125 34.90625 C 117.054688 38.066406 117.035156 41.226562 117.042969 44.386719 C 116.261719 44.386719 115.480469 44.386719 114.699219 44.386719 C 114.695312 41.226562 114.699219 38.070312 114.699219 34.914062 Z M 129.691406 34.914062 C 130.386719 34.910156 131.082031 34.917969 131.78125 34.910156 C 133.761719 36.90625 135.707031 38.9375 137.695312 40.933594 C 137.695312 38.929688 137.703125 36.925781 137.691406 34.921875 C 138.484375 34.894531 139.28125 34.925781 140.074219 34.90625 C 140.097656 38.066406 140.074219 41.226562 140.085938 44.382812 C 139.371094 44.382812 138.65625 44.394531 137.945312 44.378906 C 136.167969 42.554688 134.375 40.75 132.589844 38.933594 C 132.40625 38.753906 132.246094 38.546875 132.035156 38.398438 C 132.039062 40.394531 132.042969 42.390625 132.035156 44.390625 C 131.253906 44.386719 130.476562 44.378906 129.703125 44.394531 C 129.675781 41.234375 129.699219 38.074219 129.691406 34.914062 Z M 129.691406 34.914062 "/>
<path style=" stroke:none;fill-rule:nonzero;fill:rgb(0%,83.921569%,85.098039%);fill-opacity:1;" d="M 9.226562 30.648438 L 10.117188 30.648438 C 10.816406 30.6875 11.515625 30.789062 12.195312 30.976562 C 13.640625 31.363281 14.992188 32.105469 16.105469 33.105469 C 17.132812 34.027344 17.964844 35.164062 18.519531 36.425781 C 18.976562 37.453125 19.246094 38.5625 19.320312 39.683594 C 19.324219 39.75 19.324219 39.820312 19.332031 39.886719 L 19.332031 40.761719 C 19.304688 41.210938 19.261719 41.65625 19.175781 42.101562 C 18.898438 43.601562 18.253906 45.03125 17.316406 46.238281 C 17.082031 46.539062 16.835938 46.828125 16.566406 47.09375 C 15.523438 48.167969 14.226562 48.992188 12.8125 49.480469 C 11.957031 49.773438 11.0625 49.945312 10.160156 49.992188 L 10.105469 49.996094 L 9.230469 49.996094 C 8.742188 49.964844 8.25 49.914062 7.769531 49.816406 C 6.707031 49.601562 5.679688 49.207031 4.75 48.652344 C 3.554688 47.941406 2.515625 46.964844 1.722656 45.824219 C 0.867188 44.597656 0.304688 43.171875 0.0976562 41.691406 C 0.0703125 41.507812 0.0546875 41.320312 0.03125 41.132812 C 0.0195312 41.015625 0.0390625 40.890625 0.0078125 40.769531 L 0.0078125 39.878906 C 0.0195312 39.804688 0.0195312 39.734375 0.0234375 39.664062 C 0.105469 38.445312 0.421875 37.242188 0.949219 36.144531 C 1.632812 34.714844 2.679688 33.460938 3.953125 32.519531 C 5.058594 31.703125 6.335938 31.125 7.679688 30.847656 C 8.1875 30.734375 8.707031 30.679688 9.226562 30.644531 Z M 8.953125 39.96875 C 7.828125 39.96875 6.703125 39.972656 5.578125 39.96875 C 5.835938 39.558594 6.097656 39.15625 6.355469 38.75 C 7.054688 38.75 7.753906 38.75 8.453125 38.75 C 8.703125 38.347656 8.960938 37.953125 9.207031 37.550781 C 7.652344 37.550781 6.09375 37.550781 4.539062 37.550781 C 4.277344 37.945312 4.03125 38.351562 3.777344 38.75 C 4.152344 38.75 4.523438 38.746094 4.898438 38.75 C 4.394531 39.558594 3.878906 40.359375 3.378906 41.167969 C 5.472656 41.171875 7.566406 41.167969 9.660156 41.167969 C 9.6875 41.121094 9.714844 41.078125 9.742188 41.03125 C 10.511719 39.8125 11.277344 38.59375 12.046875 37.375 C 12.332031 37.832031 12.621094 38.289062 12.90625 38.75 C 12.660156 38.75 12.410156 38.75 12.164062 38.75 C 11.914062 39.15625 11.65625 39.554688 11.410156 39.957031 C 12.164062 39.960938 12.917969 39.957031 13.671875 39.960938 C 13.925781 40.363281 14.179688 40.765625 14.4375 41.167969 C 14.917969 41.167969 15.402344 41.171875 15.882812 41.164062 C 14.601562 39.140625 13.324219 37.109375 12.046875 35.082031 C 11.015625 36.710938 9.984375 38.339844 8.953125 39.96875 Z M 6.058594 35.132812 C 5.804688 35.53125 5.554688 35.929688 5.304688 36.332031 C 6.957031 36.332031 8.609375 36.332031 10.265625 36.332031 C 10.515625 35.929688 10.769531 35.535156 11.019531 35.132812 C 9.363281 35.132812 7.710938 35.132812 6.054688 35.132812 Z M 3.613281 41.851562 C 3.421875 41.941406 3.292969 42.148438 3.296875 42.363281 C 3.304688 42.570312 3.265625 42.789062 3.359375 42.980469 C 3.449219 43.160156 3.640625 43.277344 3.839844 43.277344 L 4.386719 43.277344 C 4.453125 43.277344 4.523438 43.289062 4.5625 43.347656 C 4.613281 43.425781 4.597656 43.523438 4.601562 43.613281 C 4.597656 43.707031 4.613281 43.804688 4.574219 43.894531 C 4.542969 43.957031 4.476562 43.996094 4.40625 43.996094 C 4.253906 43.996094 4.105469 44 3.953125 43.996094 C 3.882812 43.996094 3.8125 43.960938 3.78125 43.898438 C 3.738281 43.804688 3.730469 43.703125 3.699219 43.609375 C 3.5625 43.609375 3.429688 43.609375 3.296875 43.609375 C 3.296875 43.738281 3.289062 43.867188 3.3125 43.992188 C 3.34375 44.15625 3.464844 44.296875 3.617188 44.363281 C 3.785156 44.433594 3.964844 44.40625 4.140625 44.414062 C 4.300781 44.40625 4.46875 44.425781 4.628906 44.394531 C 4.851562 44.34375 5.027344 44.144531 5.046875 43.917969 C 5.058594 43.777344 5.046875 43.636719 5.050781 43.5 C 5.054688 43.382812 5.046875 43.265625 4.988281 43.160156 C 4.90625 42.992188 4.726562 42.867188 4.539062 42.859375 C 4.324219 42.847656 4.109375 42.859375 3.898438 42.851562 C 3.816406 42.847656 3.757812 42.765625 3.757812 42.6875 C 3.757812 42.59375 3.757812 42.5 3.757812 42.40625 C 3.753906 42.300781 3.847656 42.207031 3.953125 42.210938 L 4.367188 42.210938 C 4.441406 42.210938 4.527344 42.238281 4.5625 42.308594 C 4.605469 42.394531 4.617188 42.488281 4.648438 42.582031 C 4.78125 42.578125 4.910156 42.582031 5.042969 42.578125 C 5.039062 42.449219 5.058594 42.3125 5.023438 42.183594 C 4.992188 42.0625 4.914062 41.957031 4.808594 41.890625 C 4.703125 41.816406 4.570312 41.796875 4.445312 41.796875 L 3.933594 41.796875 C 3.824219 41.796875 3.710938 41.800781 3.613281 41.855469 Z M 5.601562 41.792969 L 5.601562 44.410156 C 5.75 44.414062 5.902344 44.410156 6.050781 44.410156 L 6.050781 43.445312 C 6.300781 43.445312 6.550781 43.445312 6.800781 43.445312 C 6.988281 43.445312 7.160156 43.332031 7.253906 43.175781 C 7.335938 43.046875 7.332031 42.890625 7.335938 42.746094 C 7.332031 42.578125 7.34375 42.40625 7.320312 42.242188 C 7.28125 42.015625 7.082031 41.835938 6.859375 41.804688 C 6.734375 41.789062 6.605469 41.796875 6.480469 41.792969 C 6.1875 41.792969 5.890625 41.792969 5.597656 41.792969 Z M 8.226562 41.8125 C 8 41.863281 7.816406 42.074219 7.808594 42.308594 L 7.808594 43.878906 C 7.808594 44.023438 7.882812 44.164062 7.984375 44.261719 C 8.089844 44.355469 8.226562 44.40625 8.367188 44.410156 C 8.550781 44.414062 8.734375 44.410156 8.917969 44.410156 C 9.046875 44.410156 9.183594 44.394531 9.292969 44.316406 C 9.453125 44.214844 9.546875 44.027344 9.542969 43.839844 C 9.546875 43.386719 9.542969 42.933594 9.542969 42.476562 C 9.546875 42.375 9.546875 42.265625 9.511719 42.164062 C 9.457031 41.996094 9.3125 41.867188 9.144531 41.816406 C 8.988281 41.785156 8.828125 41.796875 8.671875 41.792969 C 8.523438 41.796875 8.375 41.785156 8.226562 41.8125 Z M 10.101562 41.792969 L 10.101562 44.410156 L 10.5625 44.410156 C 10.5625 44.070312 10.5625 43.730469 10.5625 43.390625 C 10.710938 43.390625 10.859375 43.386719 11.003906 43.390625 C 11.148438 43.730469 11.289062 44.066406 11.429688 44.410156 C 11.589844 44.410156 11.753906 44.410156 11.914062 44.410156 C 11.765625 44.046875 11.605469 43.6875 11.460938 43.324219 C 11.664062 43.246094 11.8125 43.039062 11.808594 42.816406 C 11.808594 42.660156 11.808594 42.503906 11.808594 42.34375 C 11.816406 42.105469 11.640625 41.875 11.410156 41.816406 C 11.273438 41.78125 11.132812 41.792969 10.992188 41.792969 Z M 12.101562 41.792969 L 12.101562 42.21875 L 12.769531 42.21875 C 12.773438 42.949219 12.769531 43.679688 12.769531 44.410156 C 12.921875 44.410156 13.074219 44.410156 13.222656 44.410156 L 13.222656 42.21875 C 13.445312 42.214844 13.667969 42.21875 13.894531 42.214844 L 13.894531 41.792969 C 13.296875 41.792969 12.699219 41.792969 12.101562 41.792969 Z M 14.246094 42.246094 C 14.226562 42.34375 14.234375 42.4375 14.234375 42.535156 C 14.234375 42.648438 14.226562 42.765625 14.257812 42.875 C 14.3125 43.09375 14.519531 43.265625 14.746094 43.277344 C 14.949219 43.277344 15.152344 43.273438 15.355469 43.277344 C 15.421875 43.277344 15.496094 43.316406 15.515625 43.386719 C 15.550781 43.515625 15.535156 43.648438 15.535156 43.78125 C 15.535156 43.878906 15.476562 43.984375 15.371094 43.992188 C 15.226562 44 15.082031 43.992188 14.9375 43.996094 C 14.863281 44 14.773438 43.984375 14.730469 43.914062 C 14.675781 43.820312 14.671875 43.707031 14.636719 43.605469 L 14.234375 43.605469 C 14.234375 43.695312 14.234375 43.785156 14.234375 43.875 C 14.242188 44.019531 14.292969 44.164062 14.402344 44.257812 C 14.507812 44.363281 14.660156 44.410156 14.804688 44.410156 C 15.019531 44.410156 15.234375 44.410156 15.445312 44.40625 C 15.648438 44.402344 15.847656 44.285156 15.933594 44.097656 C 16.011719 43.945312 15.984375 43.773438 15.988281 43.609375 C 15.984375 43.480469 16.003906 43.34375 15.953125 43.214844 C 15.875 43.015625 15.683594 42.863281 15.464844 42.855469 C 15.257812 42.84375 15.050781 42.855469 14.84375 42.851562 C 14.757812 42.851562 14.695312 42.765625 14.695312 42.6875 C 14.695312 42.589844 14.695312 42.496094 14.695312 42.398438 C 14.691406 42.300781 14.777344 42.203125 14.878906 42.207031 C 15.023438 42.207031 15.167969 42.207031 15.316406 42.207031 C 15.394531 42.207031 15.476562 42.246094 15.503906 42.320312 C 15.539062 42.402344 15.554688 42.492188 15.585938 42.578125 C 15.71875 42.574219 15.847656 42.578125 15.976562 42.574219 L 15.976562 42.324219 C 15.976562 42.144531 15.882812 41.964844 15.726562 41.875 C 15.597656 41.792969 15.441406 41.789062 15.292969 41.792969 C 15.113281 41.796875 14.929688 41.785156 14.75 41.796875 C 14.503906 41.808594 14.285156 42.007812 14.246094 42.246094 Z M 16.03125 41.878906 C 16.03125 41.890625 16.027344 41.914062 16.027344 41.925781 L 16.128906 41.925781 L 16.128906 42.132812 L 16.175781 42.132812 L 16.175781 41.925781 C 16.207031 41.925781 16.238281 41.925781 16.269531 41.925781 L 16.269531 41.878906 L 16.027344 41.878906 Z M 16.339844 41.871094 C 16.335938 41.960938 16.335938 42.050781 16.339844 42.140625 C 16.347656 42.136719 16.363281 42.128906 16.371094 42.125 C 16.378906 42.070312 16.375 42.015625 16.378906 41.960938 C 16.410156 42.007812 16.441406 42.058594 16.472656 42.105469 C 16.5 42.058594 16.53125 42.015625 16.5625 41.972656 C 16.566406 42.027344 16.566406 42.078125 16.566406 42.132812 L 16.613281 42.132812 L 16.613281 41.878906 C 16.601562 41.878906 16.582031 41.878906 16.574219 41.878906 C 16.546875 41.929688 16.511719 41.980469 16.472656 42.027344 C 16.429688 41.972656 16.40625 41.902344 16.34375 41.871094 Z M 16.339844 41.871094 "/>
<path style=" stroke:none;fill-rule:nonzero;fill:rgb(0%,83.921569%,85.098039%);fill-opacity:1;" d="M 6.050781 42.21875 C 6.257812 42.21875 6.464844 42.214844 6.671875 42.21875 C 6.742188 42.234375 6.824219 42.261719 6.851562 42.332031 C 6.878906 42.421875 6.871094 42.519531 6.875 42.609375 C 6.871094 42.710938 6.882812 42.8125 6.851562 42.90625 C 6.828125 42.984375 6.742188 43.003906 6.671875 43.027344 C 6.464844 43.035156 6.261719 43.03125 6.050781 43.03125 Z M 8.433594 42.222656 C 8.585938 42.210938 8.742188 42.21875 8.894531 42.21875 C 8.960938 42.242188 9.050781 42.265625 9.070312 42.34375 C 9.085938 42.386719 9.082031 42.433594 9.082031 42.476562 C 9.078125 42.921875 9.085938 43.367188 9.078125 43.8125 C 9.074219 43.921875 8.96875 43.960938 8.882812 43.992188 C 8.761719 44 8.640625 43.992188 8.519531 43.996094 C 8.457031 44 8.398438 43.964844 8.34375 43.9375 C 8.28125 43.90625 8.265625 43.828125 8.269531 43.761719 C 8.273438 43.300781 8.265625 42.839844 8.273438 42.378906 C 8.273438 42.289062 8.359375 42.246094 8.433594 42.222656 Z M 10.5625 42.21875 C 10.75 42.214844 10.9375 42.21875 11.125 42.21875 C 11.191406 42.210938 11.246094 42.253906 11.304688 42.277344 C 11.375 42.382812 11.351562 42.511719 11.355469 42.628906 C 11.355469 42.71875 11.363281 42.816406 11.3125 42.894531 C 11.253906 42.9375 11.179688 42.96875 11.105469 42.964844 C 10.925781 42.964844 10.742188 42.964844 10.5625 42.964844 C 10.5625 42.714844 10.5625 42.464844 10.5625 42.21875 Z M 10.5625 42.21875 "/>
</g>
</svg>
