<?xml version="1.0" encoding="UTF-8"?>
<svg xmlns="http://www.w3.org/2000/svg" xmlns:xlink="http://www.w3.org/1999/xlink" width="12px" height="12px" viewBox="0 0 12 12" version="1.1">
<g id="surface1">
<path style=" stroke:none;fill-rule:nonzero;fill:rgb(0%,0%,0%);fill-opacity:1;" d="M 0.0703125 6.621094 C 0.167969 7.382812 0.820312 7.96875 1.609375 7.96875 C 2.394531 7.96875 3.046875 7.382812 3.144531 6.621094 Z M 8.445312 9.738281 C 8.445312 9.871094 8.335938 9.980469 8.203125 9.980469 L 3.726562 9.980469 C 3.59375 9.980469 3.488281 9.871094 3.488281 9.738281 C 3.488281 9.609375 3.59375 9.5 3.726562 9.5 L 8.203125 9.5 C 8.335938 9.5 8.445312 9.609375 8.445312 9.738281 Z M 3.511719 10.101562 L 8.417969 10.101562 L 8.417969 10.796875 L 3.511719 10.796875 Z M 8.855469 6.621094 C 8.953125 7.382812 9.605469 7.96875 10.390625 7.96875 C 11.179688 7.96875 11.832031 7.382812 11.929688 6.621094 Z M 11.84375 6.136719 L 10.585938 4.402344 L 11.257812 4.402344 C 11.421875 4.402344 11.554688 4.269531 11.554688 4.105469 C 11.554688 3.941406 11.421875 3.808594 11.257812 3.808594 L 7.695312 3.808594 C 7.480469 3.222656 6.96875 2.78125 6.34375 2.671875 L 6.34375 1.734375 C 6.34375 1.570312 6.210938 1.4375 6.042969 1.4375 L 6.015625 1.441406 L 5.988281 1.4375 C 5.824219 1.4375 5.691406 1.570312 5.691406 1.734375 L 5.691406 2.671875 C 5.0625 2.78125 4.550781 3.21875 4.339844 3.804688 L 0.773438 3.804688 C 0.609375 3.804688 0.480469 3.9375 0.480469 4.105469 C 0.480469 4.269531 0.609375 4.402344 0.773438 4.402344 L 1.414062 4.402344 L 0.15625 6.136719 L 0 6.136719 L 0 6.457031 L 3.214844 6.457031 L 3.214844 6.136719 L 3.058594 6.136719 L 1.800781 4.402344 L 4.71875 4.402344 C 4.71875 4.335938 4.726562 4.269531 4.738281 4.207031 C 4.746094 4.175781 4.753906 4.144531 4.753906 4.113281 C 4.863281 3.652344 5.226562 3.28125 5.691406 3.171875 L 5.691406 6.457031 L 5.675781 6.457031 C 5.652344 7.695312 5.0625 8.773438 4.191406 9.378906 L 7.84375 9.378906 C 6.96875 8.773438 6.382812 7.695312 6.355469 6.457031 L 6.34375 6.457031 L 6.34375 3.171875 C 6.804688 3.28125 7.167969 3.652344 7.277344 4.113281 C 7.277344 4.144531 7.285156 4.175781 7.296875 4.207031 C 7.304688 4.269531 7.3125 4.335938 7.3125 4.402344 L 10.199219 4.402344 L 8.941406 6.136719 L 8.785156 6.136719 L 8.785156 6.457031 L 12 6.457031 L 12 6.136719 Z M 1.480469 6.136719 L 0.476562 6.136719 L 1.480469 4.753906 Z M 1.738281 6.136719 L 1.738281 4.753906 L 2.742188 6.136719 Z M 10.265625 6.136719 L 9.257812 6.136719 L 10.265625 4.753906 Z M 10.519531 6.136719 L 10.519531 4.753906 L 11.527344 6.136719 Z M 1.90625 3.390625 C 1.90625 3.550781 1.773438 3.6875 1.609375 3.6875 C 1.445312 3.6875 1.308594 3.550781 1.308594 3.390625 C 1.308594 3.226562 1.445312 3.089844 1.609375 3.089844 C 1.773438 3.089844 1.90625 3.226562 1.90625 3.390625 Z M 10.691406 3.375 C 10.691406 3.539062 10.558594 3.671875 10.394531 3.671875 C 10.226562 3.671875 10.09375 3.539062 10.09375 3.375 C 10.09375 3.210938 10.226562 3.074219 10.394531 3.074219 C 10.558594 3.074219 10.691406 3.210938 10.691406 3.375 Z M 10.691406 3.375 "/>
</g>
</svg>
