<?xml version="1.0" encoding="UTF-8"?>
<svg xmlns="http://www.w3.org/2000/svg" xmlns:xlink="http://www.w3.org/1999/xlink" width="12px" height="12px" viewBox="0 0 12 12" version="1.1">
<g id="surface1">
<path style=" stroke:none;fill-rule:nonzero;fill:rgb(0%,0%,0%);fill-opacity:1;" d="M 10 8.5 C 10.550781 8.5 11 8.050781 11 7.5 L 11 2 C 11 1.449219 10.550781 1 10 1 L 4.730469 1 C 4.90625 1.304688 5 1.648438 5 2 L 10 2 L 10 7.5 L 5.5 7.5 L 5.5 8.5 M 7.5 3.5 L 7.5 4.5 L 4.5 4.5 L 4.5 11 L 3.5 11 L 3.5 8 L 2.5 8 L 2.5 11 L 1.5 11 L 1.5 7 L 0.75 7 L 0.75 4.5 C 0.75 3.949219 1.199219 3.5 1.75 3.5 Z M 4 2 C 4 2.550781 3.550781 3 3 3 C 2.449219 3 2 2.550781 2 2 C 2 1.449219 2.449219 1 3 1 C 3.550781 1 4 1.449219 4 2 "/>
</g>
</svg>
